<?xml version="1.0" encoding="UTF-8"?>
<svg xmlns="http://www.w3.org/2000/svg" viewBox="0 0 1000 720" width="100%" height="100%">
  <title>Phason healing length and lumen scale</title>
  <metadata>Volume 1 Chapter 7 / Appendix K phason profile schematic.</metadata>
  <defs>
    <marker id="arrow" viewBox="0 0 10 10" refX="9" refY="5" markerWidth="7" markerHeight="7" orient="auto-start-reverse">
      <path d="M 0 1 L 10 5 L 0 9 z" fill="#2c5d8a"/>
    </marker>
    <marker id="arrowMuted" viewBox="0 0 10 10" refX="9" refY="5" markerWidth="6" markerHeight="6" orient="auto-start-reverse">
      <path d="M 0 1 L 10 5 L 0 9 z" fill="#475569"/>
    </marker>
    <pattern id="diagHatch" width="6" height="6" patternTransform="rotate(45)" patternUnits="userSpaceOnUse">
      <line x1="0" y1="0" x2="0" y2="6" stroke="#cbd5e1" stroke-width="1"/>
    </pattern>
  </defs>
  <rect width="1000" height="720" fill="#ffffff"/>
  <text x="500.000" y="42.000" text-anchor="middle" style="font-family:Arial, Helvetica, sans-serif;font-size:16px;fill:#2c5d8a;font-weight:bold;">Figure V1.7.3</text>
  <text x="500.000" y="72.000" text-anchor="middle" style="font-family:'Times New Roman', Times, serif;font-size:28px;fill:#0f172a;font-weight:bold;">Phason healing length and lumen scale</text>
  <text x="500.000" y="100.000" text-anchor="middle" style="font-family:Arial, Helvetica, sans-serif;font-size:14px;fill:#475569;">Localized transverse profile: xi = a0/alpha; 2 xi aligns with the microtubule lumen scale.</text>
  <rect x="90.000" y="140.000" width="640.000" height="390.000" fill="#ffffff" stroke="#cbd5e1" stroke-width="1.4"/>
  <line x1="90.000" y1="140.000" x2="90.000" y2="530.000" stroke="#e2e8f0" stroke-width="1"/>
  <line x1="250.000" y1="140.000" x2="250.000" y2="530.000" stroke="#e2e8f0" stroke-width="1"/>
  <line x1="410.000" y1="140.000" x2="410.000" y2="530.000" stroke="#e2e8f0" stroke-width="1"/>
  <line x1="570.000" y1="140.000" x2="570.000" y2="530.000" stroke="#e2e8f0" stroke-width="1"/>
  <line x1="730.000" y1="140.000" x2="730.000" y2="530.000" stroke="#e2e8f0" stroke-width="1"/>
  <line x1="90.000" y1="437.143" x2="730.000" y2="437.143" stroke="#e2e8f0" stroke-width="1"/>
  <line x1="90.000" y1="344.286" x2="730.000" y2="344.286" stroke="#e2e8f0" stroke-width="1"/>
  <line x1="90.000" y1="251.429" x2="730.000" y2="251.429" stroke="#e2e8f0" stroke-width="1"/>
  <line x1="90.000" y1="158.571" x2="730.000" y2="158.571" stroke="#e2e8f0" stroke-width="1"/>
  <rect x="290.000" y="140.000" width="240.000" height="390.000" fill="#f1f5f9" opacity="0.82"/>
  <rect x="293.974" y="140.000" width="232.052" height="390.000" fill="#d7e7f4" opacity="0.78"/>
  <line x1="293.974" y1="140.000" x2="293.974" y2="530.000" stroke="#2c5d8a" stroke-width="2.2" stroke-dasharray="7 5"/>
  <line x1="526.026" y1="140.000" x2="526.026" y2="530.000" stroke="#2c5d8a" stroke-width="2.2" stroke-dasharray="7 5"/>
  <line x1="290.000" y1="140.000" x2="290.000" y2="530.000" stroke="#475569" stroke-width="1.5" stroke-dasharray="3 5"/>
  <line x1="530.000" y1="140.000" x2="530.000" y2="530.000" stroke="#475569" stroke-width="1.5" stroke-dasharray="3 5"/>
  <polygon points="90.000,530.000 90.000,506.445 92.000,506.035 94.000,505.618 96.000,505.194 98.000,504.763 100.000,504.324 102.000,503.878 104.000,503.424 106.000,502.962 108.000,502.492 110.000,502.013 112.000,501.527 114.000,501.032 116.000,500.528 118.000,500.015 120.000,499.494 122.000,498.964 124.000,498.424 126.000,497.875 128.000,497.317 130.000,496.748 132.000,496.170 134.000,495.582 136.000,494.983 138.000,494.375 140.000,493.755 142.000,493.125 144.000,492.484 146.000,491.832 148.000,491.168 150.000,490.493 152.000,489.806 154.000,489.107 156.000,488.396 158.000,487.673 160.000,486.937 162.000,486.188 164.000,485.426 166.000,484.651 168.000,483.863 170.000,483.061 172.000,482.244 174.000,481.414 176.000,480.569 178.000,479.710 180.000,478.836 182.000,477.946 184.000,477.041 186.000,476.120 188.000,475.183 190.000,474.230 192.000,473.261 194.000,472.274 196.000,471.270 198.000,470.249 200.000,469.210 202.000,468.153 204.000,467.078 206.000,465.984 208.000,464.871 210.000,463.739 212.000,462.587 214.000,461.414 216.000,460.222 218.000,459.009 220.000,457.774 222.000,456.519 224.000,455.241 226.000,453.941 228.000,452.619 230.000,451.273 232.000,449.905 234.000,448.512 236.000,447.095 238.000,445.654 240.000,444.187 242.000,442.695 244.000,441.177 246.000,439.633 248.000,438.062 250.000,436.463 252.000,434.837 254.000,433.182 256.000,431.499 258.000,429.786 260.000,428.044 262.000,426.271 264.000,424.467 266.000,422.633 268.000,420.766 270.000,418.867 272.000,416.934 274.000,414.968 276.000,412.968 278.000,410.934 280.000,408.863 282.000,406.757 284.000,404.614 286.000,402.434 288.000,400.216 290.000,397.960 292.000,395.664 294.000,393.328 296.000,390.952 298.000,388.534 300.000,386.075 302.000,383.572 304.000,381.026 306.000,378.436 308.000,375.801 310.000,373.120 312.000,370.392 314.000,367.617 316.000,364.794 318.000,361.921 320.000,358.999 322.000,356.026 324.000,353.001 326.000,349.924 328.000,346.793 330.000,343.607 332.000,340.366 334.000,337.069 336.000,333.715 338.000,330.302 340.000,326.830 342.000,323.297 344.000,319.703 346.000,316.047 348.000,312.327 350.000,308.542 352.000,304.692 354.000,300.774 356.000,296.789 358.000,292.734 360.000,288.609 362.000,284.412 364.000,280.142 366.000,275.797 368.000,271.378 370.000,266.881 372.000,262.306 374.000,257.652 376.000,252.916 378.000,248.099 380.000,243.197 382.000,238.211 384.000,233.137 386.000,227.976 388.000,222.725 390.000,217.382 392.000,211.947 394.000,206.417 396.000,200.791 398.000,195.067 400.000,189.243 402.000,183.318 404.000,177.291 406.000,171.158 408.000,164.919 410.000,158.571 412.000,164.919 414.000,171.158 416.000,177.291 418.000,183.318 420.000,189.243 422.000,195.067 424.000,200.791 426.000,206.417 428.000,211.947 430.000,217.382 432.000,222.725 434.000,227.976 436.000,233.137 438.000,238.211 440.000,243.197 442.000,248.099 444.000,252.916 446.000,257.652 448.000,262.306 450.000,266.881 452.000,271.378 454.000,275.797 456.000,280.142 458.000,284.412 460.000,288.609 462.000,292.734 464.000,296.789 466.000,300.774 468.000,304.692 470.000,308.542 472.000,312.327 474.000,316.047 476.000,319.703 478.000,323.297 480.000,326.830 482.000,330.302 484.000,333.715 486.000,337.069 488.000,340.366 490.000,343.607 492.000,346.793 494.000,349.924 496.000,353.001 498.000,356.026 500.000,358.999 502.000,361.921 504.000,364.794 506.000,367.617 508.000,370.392 510.000,373.120 512.000,375.801 514.000,378.436 516.000,381.026 518.000,383.572 520.000,386.075 522.000,388.534 524.000,390.952 526.000,393.328 528.000,395.664 530.000,397.960 532.000,400.216 534.000,402.434 536.000,404.614 538.000,406.757 540.000,408.863 542.000,410.934 544.000,412.968 546.000,414.968 548.000,416.934 550.000,418.867 552.000,420.766 554.000,422.633 556.000,424.467 558.000,426.271 560.000,428.044 562.000,429.786 564.000,431.499 566.000,433.182 568.000,434.837 570.000,436.463 572.000,438.062 574.000,439.633 576.000,441.177 578.000,442.695 580.000,444.187 582.000,445.654 584.000,447.095 586.000,448.512 588.000,449.905 590.000,451.273 592.000,452.619 594.000,453.941 596.000,455.241 598.000,456.519 600.000,457.774 602.000,459.009 604.000,460.222 606.000,461.414 608.000,462.587 610.000,463.739 612.000,464.871 614.000,465.984 616.000,467.078 618.000,468.153 620.000,469.210 622.000,470.249 624.000,471.270 626.000,472.274 628.000,473.261 630.000,474.230 632.000,475.183 634.000,476.120 636.000,477.041 638.000,477.946 640.000,478.836 642.000,479.710 644.000,480.569 646.000,481.414 648.000,482.244 650.000,483.061 652.000,483.863 654.000,484.651 656.000,485.426 658.000,486.188 660.000,486.937 662.000,487.673 664.000,488.396 666.000,489.107 668.000,489.806 670.000,490.493 672.000,491.168 674.000,491.832 676.000,492.484 678.000,493.125 680.000,493.755 682.000,494.375 684.000,494.983 686.000,495.582 688.000,496.170 690.000,496.748 692.000,497.317 694.000,497.875 696.000,498.424 698.000,498.964 700.000,499.494 702.000,500.015 704.000,500.528 706.000,501.032 708.000,501.527 710.000,502.013 712.000,502.492 714.000,502.962 716.000,503.424 718.000,503.878 720.000,504.324 722.000,504.763 724.000,505.194 726.000,505.618 728.000,506.035 730.000,506.445 730.000,530.000" fill="#d7e7f4" opacity="0.35"/>
  <polyline points="90.000,506.445 92.000,506.035 94.000,505.618 96.000,505.194 98.000,504.763 100.000,504.324 102.000,503.878 104.000,503.424 106.000,502.962 108.000,502.492 110.000,502.013 112.000,501.527 114.000,501.032 116.000,500.528 118.000,500.015 120.000,499.494 122.000,498.964 124.000,498.424 126.000,497.875 128.000,497.317 130.000,496.748 132.000,496.170 134.000,495.582 136.000,494.983 138.000,494.375 140.000,493.755 142.000,493.125 144.000,492.484 146.000,491.832 148.000,491.168 150.000,490.493 152.000,489.806 154.000,489.107 156.000,488.396 158.000,487.673 160.000,486.937 162.000,486.188 164.000,485.426 166.000,484.651 168.000,483.863 170.000,483.061 172.000,482.244 174.000,481.414 176.000,480.569 178.000,479.710 180.000,478.836 182.000,477.946 184.000,477.041 186.000,476.120 188.000,475.183 190.000,474.230 192.000,473.261 194.000,472.274 196.000,471.270 198.000,470.249 200.000,469.210 202.000,468.153 204.000,467.078 206.000,465.984 208.000,464.871 210.000,463.739 212.000,462.587 214.000,461.414 216.000,460.222 218.000,459.009 220.000,457.774 222.000,456.519 224.000,455.241 226.000,453.941 228.000,452.619 230.000,451.273 232.000,449.905 234.000,448.512 236.000,447.095 238.000,445.654 240.000,444.187 242.000,442.695 244.000,441.177 246.000,439.633 248.000,438.062 250.000,436.463 252.000,434.837 254.000,433.182 256.000,431.499 258.000,429.786 260.000,428.044 262.000,426.271 264.000,424.467 266.000,422.633 268.000,420.766 270.000,418.867 272.000,416.934 274.000,414.968 276.000,412.968 278.000,410.934 280.000,408.863 282.000,406.757 284.000,404.614 286.000,402.434 288.000,400.216 290.000,397.960 292.000,395.664 294.000,393.328 296.000,390.952 298.000,388.534 300.000,386.075 302.000,383.572 304.000,381.026 306.000,378.436 308.000,375.801 310.000,373.120 312.000,370.392 314.000,367.617 316.000,364.794 318.000,361.921 320.000,358.999 322.000,356.026 324.000,353.001 326.000,349.924 328.000,346.793 330.000,343.607 332.000,340.366 334.000,337.069 336.000,333.715 338.000,330.302 340.000,326.830 342.000,323.297 344.000,319.703 346.000,316.047 348.000,312.327 350.000,308.542 352.000,304.692 354.000,300.774 356.000,296.789 358.000,292.734 360.000,288.609 362.000,284.412 364.000,280.142 366.000,275.797 368.000,271.378 370.000,266.881 372.000,262.306 374.000,257.652 376.000,252.916 378.000,248.099 380.000,243.197 382.000,238.211 384.000,233.137 386.000,227.976 388.000,222.725 390.000,217.382 392.000,211.947 394.000,206.417 396.000,200.791 398.000,195.067 400.000,189.243 402.000,183.318 404.000,177.291 406.000,171.158 408.000,164.919 410.000,158.571 412.000,164.919 414.000,171.158 416.000,177.291 418.000,183.318 420.000,189.243 422.000,195.067 424.000,200.791 426.000,206.417 428.000,211.947 430.000,217.382 432.000,222.725 434.000,227.976 436.000,233.137 438.000,238.211 440.000,243.197 442.000,248.099 444.000,252.916 446.000,257.652 448.000,262.306 450.000,266.881 452.000,271.378 454.000,275.797 456.000,280.142 458.000,284.412 460.000,288.609 462.000,292.734 464.000,296.789 466.000,300.774 468.000,304.692 470.000,308.542 472.000,312.327 474.000,316.047 476.000,319.703 478.000,323.297 480.000,326.830 482.000,330.302 484.000,333.715 486.000,337.069 488.000,340.366 490.000,343.607 492.000,346.793 494.000,349.924 496.000,353.001 498.000,356.026 500.000,358.999 502.000,361.921 504.000,364.794 506.000,367.617 508.000,370.392 510.000,373.120 512.000,375.801 514.000,378.436 516.000,381.026 518.000,383.572 520.000,386.075 522.000,388.534 524.000,390.952 526.000,393.328 528.000,395.664 530.000,397.960 532.000,400.216 534.000,402.434 536.000,404.614 538.000,406.757 540.000,408.863 542.000,410.934 544.000,412.968 546.000,414.968 548.000,416.934 550.000,418.867 552.000,420.766 554.000,422.633 556.000,424.467 558.000,426.271 560.000,428.044 562.000,429.786 564.000,431.499 566.000,433.182 568.000,434.837 570.000,436.463 572.000,438.062 574.000,439.633 576.000,441.177 578.000,442.695 580.000,444.187 582.000,445.654 584.000,447.095 586.000,448.512 588.000,449.905 590.000,451.273 592.000,452.619 594.000,453.941 596.000,455.241 598.000,456.519 600.000,457.774 602.000,459.009 604.000,460.222 606.000,461.414 608.000,462.587 610.000,463.739 612.000,464.871 614.000,465.984 616.000,467.078 618.000,468.153 620.000,469.210 622.000,470.249 624.000,471.270 626.000,472.274 628.000,473.261 630.000,474.230 632.000,475.183 634.000,476.120 636.000,477.041 638.000,477.946 640.000,478.836 642.000,479.710 644.000,480.569 646.000,481.414 648.000,482.244 650.000,483.061 652.000,483.863 654.000,484.651 656.000,485.426 658.000,486.188 660.000,486.937 662.000,487.673 664.000,488.396 666.000,489.107 668.000,489.806 670.000,490.493 672.000,491.168 674.000,491.832 676.000,492.484 678.000,493.125 680.000,493.755 682.000,494.375 684.000,494.983 686.000,495.582 688.000,496.170 690.000,496.748 692.000,497.317 694.000,497.875 696.000,498.424 698.000,498.964 700.000,499.494 702.000,500.015 704.000,500.528 706.000,501.032 708.000,501.527 710.000,502.013 712.000,502.492 714.000,502.962 716.000,503.424 718.000,503.878 720.000,504.324 722.000,504.763 724.000,505.194 726.000,505.618 728.000,506.035 730.000,506.445" fill="none" stroke="#2c5d8a" stroke-width="3.0"/>
  <line x1="90.000" y1="530.000" x2="730.000" y2="530.000" stroke="#0f172a" stroke-width="1.6"/>
  <line x1="90.000" y1="140.000" x2="90.000" y2="530.000" stroke="#0f172a" stroke-width="1.6"/>
  <line x1="90.000" y1="530.000" x2="90.000" y2="537.000" stroke="#0f172a" stroke-width="1.2"/>
  <text x="90.000" y="556.000" text-anchor="middle" style="font-family:Arial, Helvetica, sans-serif;font-size:12px;fill:#475569;">-20</text>
  <line x1="250.000" y1="530.000" x2="250.000" y2="537.000" stroke="#0f172a" stroke-width="1.2"/>
  <text x="250.000" y="556.000" text-anchor="middle" style="font-family:Arial, Helvetica, sans-serif;font-size:12px;fill:#475569;">-10</text>
  <line x1="410.000" y1="530.000" x2="410.000" y2="537.000" stroke="#0f172a" stroke-width="1.2"/>
  <text x="410.000" y="556.000" text-anchor="middle" style="font-family:Arial, Helvetica, sans-serif;font-size:12px;fill:#475569;">0</text>
  <line x1="570.000" y1="530.000" x2="570.000" y2="537.000" stroke="#0f172a" stroke-width="1.2"/>
  <text x="570.000" y="556.000" text-anchor="middle" style="font-family:Arial, Helvetica, sans-serif;font-size:12px;fill:#475569;">10</text>
  <line x1="730.000" y1="530.000" x2="730.000" y2="537.000" stroke="#0f172a" stroke-width="1.2"/>
  <text x="730.000" y="556.000" text-anchor="middle" style="font-family:Arial, Helvetica, sans-serif;font-size:12px;fill:#475569;">20</text>
  <line x1="83.000" y1="530.000" x2="90.000" y2="530.000" stroke="#0f172a" stroke-width="1.2"/>
  <text x="78.000" y="534.000" text-anchor="end" style="font-family:Arial, Helvetica, sans-serif;font-size:12px;fill:#475569;">0.0</text>
  <line x1="83.000" y1="344.286" x2="90.000" y2="344.286" stroke="#0f172a" stroke-width="1.2"/>
  <text x="78.000" y="348.286" text-anchor="end" style="font-family:Arial, Helvetica, sans-serif;font-size:12px;fill:#475569;">0.5</text>
  <line x1="83.000" y1="158.571" x2="90.000" y2="158.571" stroke="#0f172a" stroke-width="1.2"/>
  <text x="78.000" y="162.571" text-anchor="end" style="font-family:Arial, Helvetica, sans-serif;font-size:12px;fill:#475569;">1.0</text>
  <text x="410.000" y="584.000" text-anchor="middle" style="font-family:Arial, Helvetica, sans-serif;font-size:14px;fill:#0f172a;">transverse coordinate across lumen (nm)</text>
  <text x="30.000" y="335.000" text-anchor="middle" style="font-family:Arial, Helvetica, sans-serif;font-size:14px;fill:#0f172a;" transform="rotate(-90 30 335.0)">normalized phason amplitude</text>
  <line x1="293.974" y1="608.000" x2="526.026" y2="608.000" stroke="#2c5d8a" stroke-width="2" marker-start="url(#arrow)" marker-end="url(#arrow)"/>
  <text x="410.000" y="599.000" text-anchor="middle" style="font-family:Arial, Helvetica, sans-serif;font-size:14px;fill:#2c5d8a;font-weight:bold;">2 xi = 14.50 nm</text>
  <line x1="290.000" y1="642.000" x2="530.000" y2="642.000" stroke="#475569" stroke-width="2" marker-start="url(#arrowMuted)" marker-end="url(#arrowMuted)"/>
  <text x="410.000" y="663.000" text-anchor="middle" style="font-family:Arial, Helvetica, sans-serif;font-size:13px;fill:#475569;">microtubule lumen ID approx 15 nm</text>
  <text x="293.974" y="488.000" text-anchor="middle" style="font-family:Arial, Helvetica, sans-serif;font-size:12px;fill:#2c5d8a;">-xi</text>
  <text x="526.026" y="488.000" text-anchor="middle" style="font-family:Arial, Helvetica, sans-serif;font-size:12px;fill:#2c5d8a;">+xi</text>
  <text x="293.974" y="512.000" text-anchor="middle" style="font-family:Arial, Helvetica, sans-serif;font-size:12px;fill:#475569;">-7.25 nm</text>
  <text x="526.026" y="512.000" text-anchor="middle" style="font-family:Arial, Helvetica, sans-serif;font-size:12px;fill:#475569;">+7.25 nm</text>
  <rect x="765.000" y="145.000" width="190.000" height="255.000" fill="#f8fafc" stroke="#cbd5e1" stroke-width="1.3" rx="4"/>
  <text x="781.000" y="175.000" text-anchor="start" style="font-family:Arial, Helvetica, sans-serif;font-size:15px;fill:#0f172a;font-weight:bold;">Source quantities</text>
  <text x="781.000" y="209.000" text-anchor="start" style="font-family:Arial, Helvetica, sans-serif;font-size:13px;fill:#475569;">a0 = 0.05291772 nm</text>
  <text x="781.000" y="231.000" text-anchor="start" style="font-family:Arial, Helvetica, sans-serif;font-size:13px;fill:#475569;">alpha inverse = 137.036</text>
  <text x="781.000" y="253.000" text-anchor="start" style="font-family:Arial, Helvetica, sans-serif;font-size:13px;fill:#475569;">xi = a0 / alpha = 7.25 nm</text>
  <text x="781.000" y="275.000" text-anchor="start" style="font-family:Arial, Helvetica, sans-serif;font-size:13px;fill:#475569;">2 xi = 14.50 nm</text>
  <text x="781.000" y="297.000" text-anchor="start" style="font-family:Arial, Helvetica, sans-serif;font-size:13px;fill:#475569;">K_perp / K_parallel</text>
  <text x="781.000" y="319.000" text-anchor="start" style="font-family:Arial, Helvetica, sans-serif;font-size:13px;fill:#475569;">equals phi power -18</text>
  <text x="781.000" y="341.000" text-anchor="start" style="font-family:Arial, Helvetica, sans-serif;font-size:13px;fill:#475569;">= 1.731e-04</text>
  <line x1="781.000" y1="355.000" x2="939.000" y2="355.000" stroke="#cbd5e1" stroke-width="1"/>
  <text x="781.000" y="380.000" text-anchor="start" style="font-family:Arial, Helvetica, sans-serif;font-size:12px;fill:#0f172a;">xi: Tier 1 Bohr scaling</text>
  <text x="781.000" y="398.000" text-anchor="start" style="font-family:Arial, Helvetica, sans-serif;font-size:12px;fill:#0f172a;">lumen match: Tier 3 correlation</text>
  <rect x="765.000" y="430.000" width="190.000" height="165.000" fill="#ffffff" stroke="#cbd5e1" stroke-width="1.3" rx="4"/>
  <text x="781.000" y="458.000" text-anchor="start" style="font-family:Arial, Helvetica, sans-serif;font-size:15px;fill:#0f172a;font-weight:bold;">Scale comparison</text>
  <rect x="785.000" y="482.000" width="135.676" height="18.000" fill="#2c5d8a"/>
  <text x="785.000" y="518.000" text-anchor="start" style="font-family:Arial, Helvetica, sans-serif;font-size:12px;fill:#475569;">polaron diameter 14.50 nm</text>
  <rect x="785.000" y="530.000" width="140.323" height="18.000" fill="#94a3b8"/>
  <text x="785.000" y="562.000" text-anchor="start" style="font-family:Arial, Helvetica, sans-serif;font-size:12px;fill:#475569;">lumen diameter approx 15 nm</text>
  <text x="500.000" y="700.000" text-anchor="middle" style="font-family:Arial, Helvetica, sans-serif;font-size:13px;fill:#475569;">Interpretation: quantitative boundary-condition correlation only; not a first-principles derivation of the lumen geometry.</text>
</svg>
