<?xml version="1.0" encoding="utf-8" standalone="no"?>
<!DOCTYPE svg PUBLIC "-//W3C//DTD SVG 1.1//EN"
  "http://www.w3.org/Graphics/SVG/1.1/DTD/svg11.dtd">
<svg xmlns:xlink="http://www.w3.org/1999/xlink" width="665.310234pt" height="392.5152pt" viewBox="0 0 665.310234 392.5152" xmlns="http://www.w3.org/2000/svg" version="1.1">
 <title>Figure V3.13.4</title>
 <metadata>
  <rdf:RDF xmlns:dc="http://purl.org/dc/elements/1.1/" xmlns:cc="http://creativecommons.org/ns#" xmlns:rdf="http://www.w3.org/1999/02/22-rdf-syntax-ns#">
   <cc:Work>
    <dc:type rdf:resource="http://purl.org/dc/dcmitype/StillImage"/>
    <dc:title>Figure V3.13.4</dc:title>
    <dc:description>Protocol A-Prime expected T2 frequency signature with four-conjunct F1 joint null gate.</dc:description>
    <dc:format>image/svg+xml</dc:format>
    <dc:creator>
     <cc:Agent>
      <dc:title>deterministic matplotlib generation script</dc:title>
     </cc:Agent>
    </dc:creator>
   </cc:Work>
  </rdf:RDF>
 </metadata>
 <defs>
  <style type="text/css">*{stroke-linejoin: round; stroke-linecap: butt}</style>
 </defs>
 <g id="figure_1">
  <g id="patch_1">
   <path d="M -0 392.5152 
L 665.310234 392.5152 
L 665.310234 0 
L -0 0 
z
" style="fill: #ffffff"/>
  </g>
  <g id="axes_1">
   <g id="patch_2">
    <path d="M 54.030234 319.248 
L 395.91945 319.248 
L 395.91945 60.912 
L 54.030234 60.912 
z
" style="fill: #ffffff"/>
   </g>
   <g id="patch_3">
    <path d="M 73.291599 319.248 
L 121.445009 319.248 
L 121.445009 60.912 
L 73.291599 60.912 
z
" clip-path="url(#p092d186264)" style="fill: #eaf1f7; stroke: #eaf1f7; stroke-linejoin: miter"/>
   </g>
   <g id="patch_4">
    <path d="M 241.828536 319.248 
L 289.981947 319.248 
L 289.981947 60.912 
L 241.828536 60.912 
z
" clip-path="url(#p092d186264)" style="fill: #eaf1f7; stroke: #eaf1f7; stroke-linejoin: miter"/>
   </g>
   <g id="FillBetweenPolyCollection_1">
    <defs>
     <path id="m1e25f0612d" d="M 44.399552 -163.903729 
L 44.399552 -144.637993 
L 44.801277 -144.637993 
L 45.203002 -144.637993 
L 45.604727 -144.637993 
L 46.006451 -144.637993 
L 46.408176 -144.637993 
L 46.809901 -144.637993 
L 47.211626 -144.637993 
L 47.613351 -144.637993 
L 48.015075 -144.637993 
L 48.4168 -144.637993 
L 48.818525 -144.637993 
L 49.22025 -144.637993 
L 49.621974 -144.637993 
L 50.023699 -144.637993 
L 50.425424 -144.637993 
L 50.827149 -144.637993 
L 51.228874 -144.637993 
L 51.630598 -144.637993 
L 52.032323 -144.637993 
L 52.434048 -144.637993 
L 52.835773 -144.637993 
L 53.237497 -144.637993 
L 53.639222 -144.637993 
L 54.040947 -144.637993 
L 54.442672 -144.637993 
L 54.844397 -144.637993 
L 55.246121 -144.637993 
L 55.647846 -144.637993 
L 56.049571 -144.637993 
L 56.451296 -144.637993 
L 56.853021 -144.637993 
L 57.254745 -144.637993 
L 57.65647 -144.637993 
L 58.058195 -144.637993 
L 58.45992 -144.637993 
L 58.861644 -144.637993 
L 59.263369 -144.637993 
L 59.665094 -144.637993 
L 60.066819 -144.637993 
L 60.468544 -144.637993 
L 60.870268 -144.637993 
L 61.271993 -144.637993 
L 61.673718 -144.637993 
L 62.075443 -144.637993 
L 62.477167 -144.637993 
L 62.878892 -144.637993 
L 63.280617 -144.637993 
L 63.682342 -144.637993 
L 64.084067 -144.637993 
L 64.485791 -144.637993 
L 64.887516 -144.637993 
L 65.289241 -144.637993 
L 65.690966 -144.637993 
L 66.092691 -144.637993 
L 66.494415 -144.637993 
L 66.89614 -144.637993 
L 67.297865 -144.637993 
L 67.69959 -144.637993 
L 68.101314 -144.637993 
L 68.503039 -144.637993 
L 68.904764 -144.637993 
L 69.306489 -144.637993 
L 69.708214 -144.637993 
L 70.109938 -144.637993 
L 70.511663 -144.637993 
L 70.913388 -144.637993 
L 71.315113 -144.637993 
L 71.716838 -144.637993 
L 72.118562 -144.637993 
L 72.520287 -144.637993 
L 72.922012 -144.637993 
L 73.323737 -144.637993 
L 73.725461 -144.637993 
L 74.127186 -144.637993 
L 74.528911 -144.637993 
L 74.930636 -144.637993 
L 75.332361 -144.637993 
L 75.734085 -144.637993 
L 76.13581 -144.637993 
L 76.537535 -144.637993 
L 76.93926 -144.637993 
L 77.340984 -144.637993 
L 77.742709 -144.637993 
L 78.144434 -144.637993 
L 78.546159 -144.637993 
L 78.947884 -144.637993 
L 79.349608 -144.637993 
L 79.751333 -144.637993 
L 80.153058 -144.637993 
L 80.554783 -144.637993 
L 80.956508 -144.637993 
L 81.358232 -144.637993 
L 81.759957 -144.637993 
L 82.161682 -144.637993 
L 82.563407 -144.637993 
L 82.965131 -144.637993 
L 83.366856 -144.637993 
L 83.768581 -144.637993 
L 84.170306 -144.637993 
L 84.572031 -144.637993 
L 84.973755 -144.637993 
L 85.37548 -144.637993 
L 85.777205 -144.637993 
L 86.17893 -144.637993 
L 86.580654 -144.637993 
L 86.982379 -144.637993 
L 87.384104 -144.637993 
L 87.785829 -144.637993 
L 88.187554 -144.637993 
L 88.589278 -144.637993 
L 88.991003 -144.637993 
L 89.392728 -144.637993 
L 89.794453 -144.637993 
L 90.196178 -144.637993 
L 90.597902 -144.637993 
L 90.999627 -144.637993 
L 91.401352 -144.637993 
L 91.803077 -144.637993 
L 92.204801 -144.637993 
L 92.606526 -144.637993 
L 93.008251 -144.637993 
L 93.409976 -144.637993 
L 93.811701 -144.637993 
L 94.213425 -144.637993 
L 94.61515 -144.637993 
L 95.016875 -144.637993 
L 95.4186 -144.637993 
L 95.820325 -144.637993 
L 96.222049 -144.637993 
L 96.623774 -144.637993 
L 97.025499 -144.637993 
L 97.427224 -144.637993 
L 97.828948 -144.637993 
L 98.230673 -144.637993 
L 98.632398 -144.637993 
L 99.034123 -144.637993 
L 99.435848 -144.637993 
L 99.837572 -144.637993 
L 100.239297 -144.637993 
L 100.641022 -144.637993 
L 101.042747 -144.637993 
L 101.444471 -144.637993 
L 101.846196 -144.637993 
L 102.247921 -144.637993 
L 102.649646 -144.637993 
L 103.051371 -144.637993 
L 103.453095 -144.637993 
L 103.85482 -144.637993 
L 104.256545 -144.637993 
L 104.65827 -144.637993 
L 105.059995 -144.637993 
L 105.461719 -144.637993 
L 105.863444 -144.637993 
L 106.265169 -144.637993 
L 106.666894 -144.637993 
L 107.068618 -144.637993 
L 107.470343 -144.637993 
L 107.872068 -144.637993 
L 108.273793 -144.637993 
L 108.675518 -144.637993 
L 109.077242 -144.637993 
L 109.478967 -144.637993 
L 109.880692 -144.637993 
L 110.282417 -144.637993 
L 110.684141 -144.637993 
L 111.085866 -144.637993 
L 111.487591 -144.637993 
L 111.889316 -144.637993 
L 112.291041 -144.637993 
L 112.692765 -144.637993 
L 113.09449 -144.637993 
L 113.496215 -144.637993 
L 113.89794 -144.637993 
L 114.299665 -144.637993 
L 114.701389 -144.637993 
L 115.103114 -144.637993 
L 115.504839 -144.637993 
L 115.906564 -144.637993 
L 116.308288 -144.637993 
L 116.710013 -144.637993 
L 117.111738 -144.637993 
L 117.513463 -144.637993 
L 117.915188 -144.637993 
L 118.316912 -144.637993 
L 118.718637 -144.637993 
L 119.120362 -144.637993 
L 119.522087 -144.637993 
L 119.923812 -144.637993 
L 120.325536 -144.637993 
L 120.727261 -144.637993 
L 121.128986 -144.637993 
L 121.530711 -144.637993 
L 121.932435 -144.637993 
L 122.33416 -144.637993 
L 122.735885 -144.637993 
L 123.13761 -144.637993 
L 123.539335 -144.637993 
L 123.941059 -144.637993 
L 124.342784 -144.637993 
L 124.744509 -144.637993 
L 125.146234 -144.637993 
L 125.547958 -144.637993 
L 125.949683 -144.637993 
L 126.351408 -144.637993 
L 126.753133 -144.637993 
L 127.154858 -144.637993 
L 127.556582 -144.637993 
L 127.958307 -144.637993 
L 128.360032 -144.637993 
L 128.761757 -144.637993 
L 129.163482 -144.637993 
L 129.565206 -144.637993 
L 129.966931 -144.637993 
L 130.368656 -144.637993 
L 130.770381 -144.637993 
L 131.172105 -144.637993 
L 131.57383 -144.637993 
L 131.975555 -144.637993 
L 132.37728 -144.637993 
L 132.779005 -144.637993 
L 133.180729 -144.637993 
L 133.582454 -144.637993 
L 133.984179 -144.637993 
L 134.385904 -144.637993 
L 134.787628 -144.637993 
L 135.189353 -144.637993 
L 135.591078 -144.637993 
L 135.992803 -144.637993 
L 136.394528 -144.637993 
L 136.796252 -144.637993 
L 137.197977 -144.637993 
L 137.599702 -144.637993 
L 138.001427 -144.637993 
L 138.403152 -144.637993 
L 138.804876 -144.637993 
L 139.206601 -144.637993 
L 139.608326 -144.637993 
L 140.010051 -144.637993 
L 140.411775 -144.637993 
L 140.8135 -144.637993 
L 141.215225 -144.637993 
L 141.61695 -144.637993 
L 142.018675 -144.637993 
L 142.420399 -144.637993 
L 142.822124 -144.637993 
L 143.223849 -144.637993 
L 143.625574 -144.637993 
L 144.027299 -144.637993 
L 144.429023 -144.637993 
L 144.830748 -144.637993 
L 145.232473 -144.637993 
L 145.634198 -144.637993 
L 146.035922 -144.637993 
L 146.437647 -144.637993 
L 146.839372 -144.637993 
L 147.241097 -144.637993 
L 147.642822 -144.637993 
L 148.044546 -144.637993 
L 148.446271 -144.637993 
L 148.847996 -144.637993 
L 149.249721 -144.637993 
L 149.651445 -144.637993 
L 150.05317 -144.637993 
L 150.454895 -144.637993 
L 150.85662 -144.637993 
L 151.258345 -144.637993 
L 151.660069 -144.637993 
L 152.061794 -144.637993 
L 152.463519 -144.637993 
L 152.865244 -144.637993 
L 153.266969 -144.637993 
L 153.668693 -144.637993 
L 154.070418 -144.637993 
L 154.472143 -144.637993 
L 154.873868 -144.637993 
L 155.275592 -144.637993 
L 155.677317 -144.637993 
L 156.079042 -144.637993 
L 156.480767 -144.637993 
L 156.882492 -144.637993 
L 157.284216 -144.637993 
L 157.685941 -144.637993 
L 158.087666 -144.637993 
L 158.489391 -144.637993 
L 158.891115 -144.637993 
L 159.29284 -144.637993 
L 159.694565 -144.637993 
L 160.09629 -144.637993 
L 160.498015 -144.637993 
L 160.899739 -144.637993 
L 161.301464 -144.637993 
L 161.703189 -144.637993 
L 162.104914 -144.637993 
L 162.506639 -144.637993 
L 162.908363 -144.637993 
L 163.310088 -144.637993 
L 163.711813 -144.637993 
L 164.113538 -144.637993 
L 164.515262 -144.637993 
L 164.916987 -144.637993 
L 165.318712 -144.637993 
L 165.720437 -144.637993 
L 166.122162 -144.637993 
L 166.523886 -144.637993 
L 166.925611 -144.637993 
L 167.327336 -144.637993 
L 167.729061 -144.637993 
L 168.130786 -144.637993 
L 168.53251 -144.637993 
L 168.934235 -144.637993 
L 169.33596 -144.637993 
L 169.737685 -144.637993 
L 170.139409 -144.637993 
L 170.541134 -144.637993 
L 170.942859 -144.637993 
L 171.344584 -144.637993 
L 171.746309 -144.637993 
L 172.148033 -144.637993 
L 172.549758 -144.637993 
L 172.951483 -144.637993 
L 173.353208 -144.637993 
L 173.754932 -144.637993 
L 174.156657 -144.637993 
L 174.558382 -144.637993 
L 174.960107 -144.637993 
L 175.361832 -144.637993 
L 175.763556 -144.637993 
L 176.165281 -144.637993 
L 176.567006 -144.637993 
L 176.968731 -144.637993 
L 177.370456 -144.637993 
L 177.77218 -144.637993 
L 178.173905 -144.637993 
L 178.57563 -144.637993 
L 178.977355 -144.637993 
L 179.379079 -144.637993 
L 179.780804 -144.637993 
L 180.182529 -144.637993 
L 180.584254 -144.637993 
L 180.985979 -144.637993 
L 181.387703 -144.637993 
L 181.789428 -144.637993 
L 182.191153 -144.637993 
L 182.592878 -144.637993 
L 182.994602 -144.637993 
L 183.396327 -144.637993 
L 183.798052 -144.637993 
L 184.199777 -144.637993 
L 184.601502 -144.637993 
L 185.003226 -144.637993 
L 185.404951 -144.637993 
L 185.806676 -144.637993 
L 186.208401 -144.637993 
L 186.610126 -144.637993 
L 187.01185 -144.637993 
L 187.413575 -144.637993 
L 187.8153 -144.637993 
L 188.217025 -144.637993 
L 188.618749 -144.637993 
L 189.020474 -144.637993 
L 189.422199 -144.637993 
L 189.823924 -144.637993 
L 190.225649 -144.637993 
L 190.627373 -144.637993 
L 191.029098 -144.637993 
L 191.430823 -144.637993 
L 191.832548 -144.637993 
L 192.234273 -144.637993 
L 192.635997 -144.637993 
L 193.037722 -144.637993 
L 193.439447 -144.637993 
L 193.841172 -144.637993 
L 194.242896 -144.637993 
L 194.644621 -144.637993 
L 195.046346 -144.637993 
L 195.448071 -144.637993 
L 195.849796 -144.637993 
L 196.25152 -144.637993 
L 196.653245 -144.637993 
L 197.05497 -144.637993 
L 197.456695 -144.637993 
L 197.858419 -144.637993 
L 198.260144 -144.637993 
L 198.661869 -144.637993 
L 199.063594 -144.637993 
L 199.465319 -144.637993 
L 199.867043 -144.637993 
L 200.268768 -144.637993 
L 200.670493 -144.637993 
L 201.072218 -144.637993 
L 201.473943 -144.637993 
L 201.875667 -144.637993 
L 202.277392 -144.637993 
L 202.679117 -144.637993 
L 203.080842 -144.637993 
L 203.482566 -144.637993 
L 203.884291 -144.637993 
L 204.286016 -144.637993 
L 204.687741 -144.637993 
L 205.089466 -144.637993 
L 205.49119 -144.637993 
L 205.892915 -144.637993 
L 206.29464 -144.637993 
L 206.696365 -144.637993 
L 207.098089 -144.637993 
L 207.499814 -144.637993 
L 207.901539 -144.637993 
L 208.303264 -144.637993 
L 208.704989 -144.637993 
L 209.106713 -144.637993 
L 209.508438 -144.637993 
L 209.910163 -144.637993 
L 210.311888 -144.637993 
L 210.713613 -144.637993 
L 211.115337 -144.637993 
L 211.517062 -144.637993 
L 211.918787 -144.637993 
L 212.320512 -144.637993 
L 212.722236 -144.637993 
L 213.123961 -144.637993 
L 213.525686 -144.637993 
L 213.927411 -144.637993 
L 214.329136 -144.637993 
L 214.73086 -144.637993 
L 215.132585 -144.637993 
L 215.53431 -144.637993 
L 215.936035 -144.637993 
L 216.33776 -144.637993 
L 216.739484 -144.637993 
L 217.141209 -144.637993 
L 217.542934 -144.637993 
L 217.944659 -144.637993 
L 218.346383 -144.637993 
L 218.748108 -144.637993 
L 219.149833 -144.637993 
L 219.551558 -144.637993 
L 219.953283 -144.637993 
L 220.355007 -144.637993 
L 220.756732 -144.637993 
L 221.158457 -144.637993 
L 221.560182 -144.637993 
L 221.961906 -144.637993 
L 222.363631 -144.637993 
L 222.765356 -144.637993 
L 223.167081 -144.637993 
L 223.568806 -144.637993 
L 223.97053 -144.637993 
L 224.372255 -144.637993 
L 224.77398 -144.637993 
L 225.175705 -144.637993 
L 225.57743 -144.637993 
L 225.979154 -144.637993 
L 226.380879 -144.637993 
L 226.782604 -144.637993 
L 227.184329 -144.637993 
L 227.586053 -144.637993 
L 227.987778 -144.637993 
L 228.389503 -144.637993 
L 228.791228 -144.637993 
L 229.192953 -144.637993 
L 229.594677 -144.637993 
L 229.996402 -144.637993 
L 230.398127 -144.637993 
L 230.799852 -144.637993 
L 231.201576 -144.637993 
L 231.603301 -144.637993 
L 232.005026 -144.637993 
L 232.406751 -144.637993 
L 232.808476 -144.637993 
L 233.2102 -144.637993 
L 233.611925 -144.637993 
L 234.01365 -144.637993 
L 234.415375 -144.637993 
L 234.8171 -144.637993 
L 235.218824 -144.637993 
L 235.620549 -144.637993 
L 236.022274 -144.637993 
L 236.423999 -144.637993 
L 236.825723 -144.637993 
L 237.227448 -144.637993 
L 237.629173 -144.637993 
L 238.030898 -144.637993 
L 238.432623 -144.637993 
L 238.834347 -144.637993 
L 239.236072 -144.637993 
L 239.637797 -144.637993 
L 240.039522 -144.637993 
L 240.441247 -144.637993 
L 240.842971 -144.637993 
L 241.244696 -144.637993 
L 241.646421 -144.637993 
L 242.048146 -144.637993 
L 242.44987 -144.637993 
L 242.851595 -144.637993 
L 243.25332 -144.637993 
L 243.655045 -144.637993 
L 244.05677 -144.637993 
L 244.458494 -144.637993 
L 244.860219 -144.637993 
L 245.261944 -144.637993 
L 245.663669 -144.637993 
L 246.065393 -144.637993 
L 246.467118 -144.637993 
L 246.868843 -144.637993 
L 247.270568 -144.637993 
L 247.672293 -144.637993 
L 248.074017 -144.637993 
L 248.475742 -144.637993 
L 248.877467 -144.637993 
L 249.279192 -144.637993 
L 249.680917 -144.637993 
L 250.082641 -144.637993 
L 250.484366 -144.637993 
L 250.886091 -144.637993 
L 251.287816 -144.637993 
L 251.68954 -144.637993 
L 252.091265 -144.637993 
L 252.49299 -144.637993 
L 252.894715 -144.637993 
L 253.29644 -144.637993 
L 253.698164 -144.637993 
L 254.099889 -144.637993 
L 254.501614 -144.637993 
L 254.903339 -144.637993 
L 255.305063 -144.637993 
L 255.706788 -144.637993 
L 256.108513 -144.637993 
L 256.510238 -144.637993 
L 256.911963 -144.637993 
L 257.313687 -144.637993 
L 257.715412 -144.637993 
L 258.117137 -144.637993 
L 258.518862 -144.637993 
L 258.920587 -144.637993 
L 259.322311 -144.637993 
L 259.724036 -144.637993 
L 260.125761 -144.637993 
L 260.527486 -144.637993 
L 260.92921 -144.637993 
L 261.330935 -144.637993 
L 261.73266 -144.637993 
L 262.134385 -144.637993 
L 262.53611 -144.637993 
L 262.937834 -144.637993 
L 263.339559 -144.637993 
L 263.741284 -144.637993 
L 264.143009 -144.637993 
L 264.544734 -144.637993 
L 264.946458 -144.637993 
L 265.348183 -144.637993 
L 265.749908 -144.637993 
L 266.151633 -144.637993 
L 266.553357 -144.637993 
L 266.955082 -144.637993 
L 267.356807 -144.637993 
L 267.758532 -144.637993 
L 268.160257 -144.637993 
L 268.561981 -144.637993 
L 268.963706 -144.637993 
L 269.365431 -144.637993 
L 269.767156 -144.637993 
L 270.16888 -144.637993 
L 270.570605 -144.637993 
L 270.97233 -144.637993 
L 271.374055 -144.637993 
L 271.77578 -144.637993 
L 272.177504 -144.637993 
L 272.579229 -144.637993 
L 272.980954 -144.637993 
L 273.382679 -144.637993 
L 273.784404 -144.637993 
L 274.186128 -144.637993 
L 274.587853 -144.637993 
L 274.989578 -144.637993 
L 275.391303 -144.637993 
L 275.793027 -144.637993 
L 276.194752 -144.637993 
L 276.596477 -144.637993 
L 276.998202 -144.637993 
L 277.399927 -144.637993 
L 277.801651 -144.637993 
L 278.203376 -144.637993 
L 278.605101 -144.637993 
L 279.006826 -144.637993 
L 279.40855 -144.637993 
L 279.810275 -144.637993 
L 280.212 -144.637993 
L 280.613725 -144.637993 
L 281.01545 -144.637993 
L 281.417174 -144.637993 
L 281.818899 -144.637993 
L 282.220624 -144.637993 
L 282.622349 -144.637993 
L 283.024074 -144.637993 
L 283.425798 -144.637993 
L 283.827523 -144.637993 
L 284.229248 -144.637993 
L 284.630973 -144.637993 
L 285.032697 -144.637993 
L 285.434422 -144.637993 
L 285.836147 -144.637993 
L 286.237872 -144.637993 
L 286.639597 -144.637993 
L 287.041321 -144.637993 
L 287.443046 -144.637993 
L 287.844771 -144.637993 
L 288.246496 -144.637993 
L 288.648221 -144.637993 
L 289.049945 -144.637993 
L 289.45167 -144.637993 
L 289.853395 -144.637993 
L 290.25512 -144.637993 
L 290.656844 -144.637993 
L 291.058569 -144.637993 
L 291.460294 -144.637993 
L 291.862019 -144.637993 
L 292.263744 -144.637993 
L 292.665468 -144.637993 
L 293.067193 -144.637993 
L 293.468918 -144.637993 
L 293.870643 -144.637993 
L 294.272367 -144.637993 
L 294.674092 -144.637993 
L 295.075817 -144.637993 
L 295.477542 -144.637993 
L 295.879267 -144.637993 
L 296.280991 -144.637993 
L 296.682716 -144.637993 
L 297.084441 -144.637993 
L 297.486166 -144.637993 
L 297.887891 -144.637993 
L 298.289615 -144.637993 
L 298.69134 -144.637993 
L 299.093065 -144.637993 
L 299.49479 -144.637993 
L 299.896514 -144.637993 
L 300.298239 -144.637993 
L 300.699964 -144.637993 
L 301.101689 -144.637993 
L 301.503414 -144.637993 
L 301.905138 -144.637993 
L 302.306863 -144.637993 
L 302.708588 -144.637993 
L 303.110313 -144.637993 
L 303.512037 -144.637993 
L 303.913762 -144.637993 
L 304.315487 -144.637993 
L 304.717212 -144.637993 
L 305.118937 -144.637993 
L 305.520661 -144.637993 
L 305.922386 -144.637993 
L 306.324111 -144.637993 
L 306.725836 -144.637993 
L 307.127561 -144.637993 
L 307.529285 -144.637993 
L 307.93101 -144.637993 
L 308.332735 -144.637993 
L 308.73446 -144.637993 
L 309.136184 -144.637993 
L 309.537909 -144.637993 
L 309.939634 -144.637993 
L 310.341359 -144.637993 
L 310.743084 -144.637993 
L 311.144808 -144.637993 
L 311.546533 -144.637993 
L 311.948258 -144.637993 
L 312.349983 -144.637993 
L 312.751708 -144.637993 
L 313.153432 -144.637993 
L 313.555157 -144.637993 
L 313.956882 -144.637993 
L 314.358607 -144.637993 
L 314.760331 -144.637993 
L 315.162056 -144.637993 
L 315.563781 -144.637993 
L 315.965506 -144.637993 
L 316.367231 -144.637993 
L 316.768955 -144.637993 
L 317.17068 -144.637993 
L 317.572405 -144.637993 
L 317.97413 -144.637993 
L 318.375854 -144.637993 
L 318.777579 -144.637993 
L 319.179304 -144.637993 
L 319.581029 -144.637993 
L 319.982754 -144.637993 
L 320.384478 -144.637993 
L 320.786203 -144.637993 
L 321.187928 -144.637993 
L 321.589653 -144.637993 
L 321.991378 -144.637993 
L 322.393102 -144.637993 
L 322.794827 -144.637993 
L 323.196552 -144.637993 
L 323.598277 -144.637993 
L 324.000001 -144.637993 
L 324.401726 -144.637993 
L 324.803451 -144.637993 
L 325.205176 -144.637993 
L 325.606901 -144.637993 
L 326.008625 -144.637993 
L 326.41035 -144.637993 
L 326.812075 -144.637993 
L 327.2138 -144.637993 
L 327.615524 -144.637993 
L 328.017249 -144.637993 
L 328.418974 -144.637993 
L 328.820699 -144.637993 
L 329.222424 -144.637993 
L 329.624148 -144.637993 
L 330.025873 -144.637993 
L 330.427598 -144.637993 
L 330.829323 -144.637993 
L 331.231048 -144.637993 
L 331.632772 -144.637993 
L 332.034497 -144.637993 
L 332.436222 -144.637993 
L 332.837947 -144.637993 
L 333.239671 -144.637993 
L 333.641396 -144.637993 
L 334.043121 -144.637993 
L 334.444846 -144.637993 
L 334.846571 -144.637993 
L 335.248295 -144.637993 
L 335.65002 -144.637993 
L 336.051745 -144.637993 
L 336.45347 -144.637993 
L 336.855195 -144.637993 
L 337.256919 -144.637993 
L 337.658644 -144.637993 
L 338.060369 -144.637993 
L 338.462094 -144.637993 
L 338.863818 -144.637993 
L 339.265543 -144.637993 
L 339.667268 -144.637993 
L 340.068993 -144.637993 
L 340.470718 -144.637993 
L 340.872442 -144.637993 
L 341.274167 -144.637993 
L 341.675892 -144.637993 
L 342.077617 -144.637993 
L 342.479341 -144.637993 
L 342.881066 -144.637993 
L 343.282791 -144.637993 
L 343.684516 -144.637993 
L 344.086241 -144.637993 
L 344.487965 -144.637993 
L 344.88969 -144.637993 
L 345.291415 -144.637993 
L 345.69314 -144.637993 
L 346.094865 -144.637993 
L 346.496589 -144.637993 
L 346.898314 -144.637993 
L 347.300039 -144.637993 
L 347.701764 -144.637993 
L 348.103488 -144.637993 
L 348.505213 -144.637993 
L 348.906938 -144.637993 
L 349.308663 -144.637993 
L 349.710388 -144.637993 
L 350.112112 -144.637993 
L 350.513837 -144.637993 
L 350.915562 -144.637993 
L 351.317287 -144.637993 
L 351.719011 -144.637993 
L 352.120736 -144.637993 
L 352.522461 -144.637993 
L 352.924186 -144.637993 
L 353.325911 -144.637993 
L 353.727635 -144.637993 
L 354.12936 -144.637993 
L 354.531085 -144.637993 
L 354.93281 -144.637993 
L 355.334535 -144.637993 
L 355.736259 -144.637993 
L 356.137984 -144.637993 
L 356.539709 -144.637993 
L 356.941434 -144.637993 
L 357.343158 -144.637993 
L 357.744883 -144.637993 
L 358.146608 -144.637993 
L 358.548333 -144.637993 
L 358.950058 -144.637993 
L 359.351782 -144.637993 
L 359.753507 -144.637993 
L 360.155232 -144.637993 
L 360.556957 -144.637993 
L 360.958682 -144.637993 
L 361.360406 -144.637993 
L 361.762131 -144.637993 
L 362.163856 -144.637993 
L 362.565581 -144.637993 
L 362.967305 -144.637993 
L 363.36903 -144.637993 
L 363.770755 -144.637993 
L 364.17248 -144.637993 
L 364.574205 -144.637993 
L 364.975929 -144.637993 
L 365.377654 -144.637993 
L 365.779379 -144.637993 
L 366.181104 -144.637993 
L 366.582828 -144.637993 
L 366.984553 -144.637993 
L 367.386278 -144.637993 
L 367.788003 -144.637993 
L 368.189728 -144.637993 
L 368.591452 -144.637993 
L 368.993177 -144.637993 
L 369.394902 -144.637993 
L 369.796627 -144.637993 
L 370.198352 -144.637993 
L 370.600076 -144.637993 
L 371.001801 -144.637993 
L 371.403526 -144.637993 
L 371.805251 -144.637993 
L 372.206975 -144.637993 
L 372.6087 -144.637993 
L 373.010425 -144.637993 
L 373.41215 -144.637993 
L 373.813875 -144.637993 
L 374.215599 -144.637993 
L 374.617324 -144.637993 
L 375.019049 -144.637993 
L 375.420774 -144.637993 
L 375.822498 -144.637993 
L 376.224223 -144.637993 
L 376.625948 -144.637993 
L 377.027673 -144.637993 
L 377.429398 -144.637993 
L 377.831122 -144.637993 
L 378.232847 -144.637993 
L 378.634572 -144.637993 
L 379.036297 -144.637993 
L 379.438022 -144.637993 
L 379.839746 -144.637993 
L 380.241471 -144.637993 
L 380.643196 -144.637993 
L 381.044921 -144.637993 
L 381.446645 -144.637993 
L 381.84837 -144.637993 
L 382.250095 -144.637993 
L 382.65182 -144.637993 
L 383.053545 -144.637993 
L 383.455269 -144.637993 
L 383.856994 -144.637993 
L 384.258719 -144.637993 
L 384.660444 -144.637993 
L 385.062169 -144.637993 
L 385.463893 -144.637993 
L 385.865618 -144.637993 
L 386.267343 -144.637993 
L 386.669068 -144.637993 
L 387.070792 -144.637993 
L 387.472517 -144.637993 
L 387.874242 -144.637993 
L 388.275967 -144.637993 
L 388.677692 -144.637993 
L 389.079416 -144.637993 
L 389.481141 -144.637993 
L 389.882866 -144.637993 
L 390.284591 -144.637993 
L 390.686315 -144.637993 
L 391.08804 -144.637993 
L 391.489765 -144.637993 
L 391.89149 -144.637993 
L 392.293215 -144.637993 
L 392.694939 -144.637993 
L 393.096664 -144.637993 
L 393.498389 -144.637993 
L 393.900114 -144.637993 
L 394.301839 -144.637993 
L 394.703563 -144.637993 
L 395.105288 -144.637993 
L 395.507013 -144.637993 
L 395.908738 -144.637993 
L 396.310462 -144.637993 
L 396.712187 -144.637993 
L 397.113912 -144.637993 
L 397.515637 -144.637993 
L 397.917362 -144.637993 
L 398.319086 -144.637993 
L 398.720811 -144.637993 
L 399.122536 -144.637993 
L 399.524261 -144.637993 
L 399.925985 -144.637993 
L 400.32771 -144.637993 
L 400.729435 -144.637993 
L 401.13116 -144.637993 
L 401.532885 -144.637993 
L 401.934609 -144.637993 
L 402.336334 -144.637993 
L 402.738059 -144.637993 
L 403.139784 -144.637993 
L 403.541509 -144.637993 
L 403.943233 -144.637993 
L 404.344958 -144.637993 
L 404.746683 -144.637993 
L 405.148408 -144.637993 
L 405.550132 -144.637993 
L 405.550132 -163.903729 
L 405.550132 -163.903729 
L 405.148408 -163.903729 
L 404.746683 -163.903729 
L 404.344958 -163.903729 
L 403.943233 -163.903729 
L 403.541509 -163.903729 
L 403.139784 -163.903729 
L 402.738059 -163.903729 
L 402.336334 -163.903729 
L 401.934609 -163.903729 
L 401.532885 -163.903729 
L 401.13116 -163.903729 
L 400.729435 -163.903729 
L 400.32771 -163.903729 
L 399.925985 -163.903729 
L 399.524261 -163.903729 
L 399.122536 -163.903729 
L 398.720811 -163.903729 
L 398.319086 -163.903729 
L 397.917362 -163.903729 
L 397.515637 -163.903729 
L 397.113912 -163.903729 
L 396.712187 -163.903729 
L 396.310462 -163.903729 
L 395.908738 -163.903729 
L 395.507013 -163.903729 
L 395.105288 -163.903729 
L 394.703563 -163.903729 
L 394.301839 -163.903729 
L 393.900114 -163.903729 
L 393.498389 -163.903729 
L 393.096664 -163.903729 
L 392.694939 -163.903729 
L 392.293215 -163.903729 
L 391.89149 -163.903729 
L 391.489765 -163.903729 
L 391.08804 -163.903729 
L 390.686315 -163.903729 
L 390.284591 -163.903729 
L 389.882866 -163.903729 
L 389.481141 -163.903729 
L 389.079416 -163.903729 
L 388.677692 -163.903729 
L 388.275967 -163.903729 
L 387.874242 -163.903729 
L 387.472517 -163.903729 
L 387.070792 -163.903729 
L 386.669068 -163.903729 
L 386.267343 -163.903729 
L 385.865618 -163.903729 
L 385.463893 -163.903729 
L 385.062169 -163.903729 
L 384.660444 -163.903729 
L 384.258719 -163.903729 
L 383.856994 -163.903729 
L 383.455269 -163.903729 
L 383.053545 -163.903729 
L 382.65182 -163.903729 
L 382.250095 -163.903729 
L 381.84837 -163.903729 
L 381.446645 -163.903729 
L 381.044921 -163.903729 
L 380.643196 -163.903729 
L 380.241471 -163.903729 
L 379.839746 -163.903729 
L 379.438022 -163.903729 
L 379.036297 -163.903729 
L 378.634572 -163.903729 
L 378.232847 -163.903729 
L 377.831122 -163.903729 
L 377.429398 -163.903729 
L 377.027673 -163.903729 
L 376.625948 -163.903729 
L 376.224223 -163.903729 
L 375.822498 -163.903729 
L 375.420774 -163.903729 
L 375.019049 -163.903729 
L 374.617324 -163.903729 
L 374.215599 -163.903729 
L 373.813875 -163.903729 
L 373.41215 -163.903729 
L 373.010425 -163.903729 
L 372.6087 -163.903729 
L 372.206975 -163.903729 
L 371.805251 -163.903729 
L 371.403526 -163.903729 
L 371.001801 -163.903729 
L 370.600076 -163.903729 
L 370.198352 -163.903729 
L 369.796627 -163.903729 
L 369.394902 -163.903729 
L 368.993177 -163.903729 
L 368.591452 -163.903729 
L 368.189728 -163.903729 
L 367.788003 -163.903729 
L 367.386278 -163.903729 
L 366.984553 -163.903729 
L 366.582828 -163.903729 
L 366.181104 -163.903729 
L 365.779379 -163.903729 
L 365.377654 -163.903729 
L 364.975929 -163.903729 
L 364.574205 -163.903729 
L 364.17248 -163.903729 
L 363.770755 -163.903729 
L 363.36903 -163.903729 
L 362.967305 -163.903729 
L 362.565581 -163.903729 
L 362.163856 -163.903729 
L 361.762131 -163.903729 
L 361.360406 -163.903729 
L 360.958682 -163.903729 
L 360.556957 -163.903729 
L 360.155232 -163.903729 
L 359.753507 -163.903729 
L 359.351782 -163.903729 
L 358.950058 -163.903729 
L 358.548333 -163.903729 
L 358.146608 -163.903729 
L 357.744883 -163.903729 
L 357.343158 -163.903729 
L 356.941434 -163.903729 
L 356.539709 -163.903729 
L 356.137984 -163.903729 
L 355.736259 -163.903729 
L 355.334535 -163.903729 
L 354.93281 -163.903729 
L 354.531085 -163.903729 
L 354.12936 -163.903729 
L 353.727635 -163.903729 
L 353.325911 -163.903729 
L 352.924186 -163.903729 
L 352.522461 -163.903729 
L 352.120736 -163.903729 
L 351.719011 -163.903729 
L 351.317287 -163.903729 
L 350.915562 -163.903729 
L 350.513837 -163.903729 
L 350.112112 -163.903729 
L 349.710388 -163.903729 
L 349.308663 -163.903729 
L 348.906938 -163.903729 
L 348.505213 -163.903729 
L 348.103488 -163.903729 
L 347.701764 -163.903729 
L 347.300039 -163.903729 
L 346.898314 -163.903729 
L 346.496589 -163.903729 
L 346.094865 -163.903729 
L 345.69314 -163.903729 
L 345.291415 -163.903729 
L 344.88969 -163.903729 
L 344.487965 -163.903729 
L 344.086241 -163.903729 
L 343.684516 -163.903729 
L 343.282791 -163.903729 
L 342.881066 -163.903729 
L 342.479341 -163.903729 
L 342.077617 -163.903729 
L 341.675892 -163.903729 
L 341.274167 -163.903729 
L 340.872442 -163.903729 
L 340.470718 -163.903729 
L 340.068993 -163.903729 
L 339.667268 -163.903729 
L 339.265543 -163.903729 
L 338.863818 -163.903729 
L 338.462094 -163.903729 
L 338.060369 -163.903729 
L 337.658644 -163.903729 
L 337.256919 -163.903729 
L 336.855195 -163.903729 
L 336.45347 -163.903729 
L 336.051745 -163.903729 
L 335.65002 -163.903729 
L 335.248295 -163.903729 
L 334.846571 -163.903729 
L 334.444846 -163.903729 
L 334.043121 -163.903729 
L 333.641396 -163.903729 
L 333.239671 -163.903729 
L 332.837947 -163.903729 
L 332.436222 -163.903729 
L 332.034497 -163.903729 
L 331.632772 -163.903729 
L 331.231048 -163.903729 
L 330.829323 -163.903729 
L 330.427598 -163.903729 
L 330.025873 -163.903729 
L 329.624148 -163.903729 
L 329.222424 -163.903729 
L 328.820699 -163.903729 
L 328.418974 -163.903729 
L 328.017249 -163.903729 
L 327.615524 -163.903729 
L 327.2138 -163.903729 
L 326.812075 -163.903729 
L 326.41035 -163.903729 
L 326.008625 -163.903729 
L 325.606901 -163.903729 
L 325.205176 -163.903729 
L 324.803451 -163.903729 
L 324.401726 -163.903729 
L 324.000001 -163.903729 
L 323.598277 -163.903729 
L 323.196552 -163.903729 
L 322.794827 -163.903729 
L 322.393102 -163.903729 
L 321.991378 -163.903729 
L 321.589653 -163.903729 
L 321.187928 -163.903729 
L 320.786203 -163.903729 
L 320.384478 -163.903729 
L 319.982754 -163.903729 
L 319.581029 -163.903729 
L 319.179304 -163.903729 
L 318.777579 -163.903729 
L 318.375854 -163.903729 
L 317.97413 -163.903729 
L 317.572405 -163.903729 
L 317.17068 -163.903729 
L 316.768955 -163.903729 
L 316.367231 -163.903729 
L 315.965506 -163.903729 
L 315.563781 -163.903729 
L 315.162056 -163.903729 
L 314.760331 -163.903729 
L 314.358607 -163.903729 
L 313.956882 -163.903729 
L 313.555157 -163.903729 
L 313.153432 -163.903729 
L 312.751708 -163.903729 
L 312.349983 -163.903729 
L 311.948258 -163.903729 
L 311.546533 -163.903729 
L 311.144808 -163.903729 
L 310.743084 -163.903729 
L 310.341359 -163.903729 
L 309.939634 -163.903729 
L 309.537909 -163.903729 
L 309.136184 -163.903729 
L 308.73446 -163.903729 
L 308.332735 -163.903729 
L 307.93101 -163.903729 
L 307.529285 -163.903729 
L 307.127561 -163.903729 
L 306.725836 -163.903729 
L 306.324111 -163.903729 
L 305.922386 -163.903729 
L 305.520661 -163.903729 
L 305.118937 -163.903729 
L 304.717212 -163.903729 
L 304.315487 -163.903729 
L 303.913762 -163.903729 
L 303.512037 -163.903729 
L 303.110313 -163.903729 
L 302.708588 -163.903729 
L 302.306863 -163.903729 
L 301.905138 -163.903729 
L 301.503414 -163.903729 
L 301.101689 -163.903729 
L 300.699964 -163.903729 
L 300.298239 -163.903729 
L 299.896514 -163.903729 
L 299.49479 -163.903729 
L 299.093065 -163.903729 
L 298.69134 -163.903729 
L 298.289615 -163.903729 
L 297.887891 -163.903729 
L 297.486166 -163.903729 
L 297.084441 -163.903729 
L 296.682716 -163.903729 
L 296.280991 -163.903729 
L 295.879267 -163.903729 
L 295.477542 -163.903729 
L 295.075817 -163.903729 
L 294.674092 -163.903729 
L 294.272367 -163.903729 
L 293.870643 -163.903729 
L 293.468918 -163.903729 
L 293.067193 -163.903729 
L 292.665468 -163.903729 
L 292.263744 -163.903729 
L 291.862019 -163.903729 
L 291.460294 -163.903729 
L 291.058569 -163.903729 
L 290.656844 -163.903729 
L 290.25512 -163.903729 
L 289.853395 -163.903729 
L 289.45167 -163.903729 
L 289.049945 -163.903729 
L 288.648221 -163.903729 
L 288.246496 -163.903729 
L 287.844771 -163.903729 
L 287.443046 -163.903729 
L 287.041321 -163.903729 
L 286.639597 -163.903729 
L 286.237872 -163.903729 
L 285.836147 -163.903729 
L 285.434422 -163.903729 
L 285.032697 -163.903729 
L 284.630973 -163.903729 
L 284.229248 -163.903729 
L 283.827523 -163.903729 
L 283.425798 -163.903729 
L 283.024074 -163.903729 
L 282.622349 -163.903729 
L 282.220624 -163.903729 
L 281.818899 -163.903729 
L 281.417174 -163.903729 
L 281.01545 -163.903729 
L 280.613725 -163.903729 
L 280.212 -163.903729 
L 279.810275 -163.903729 
L 279.40855 -163.903729 
L 279.006826 -163.903729 
L 278.605101 -163.903729 
L 278.203376 -163.903729 
L 277.801651 -163.903729 
L 277.399927 -163.903729 
L 276.998202 -163.903729 
L 276.596477 -163.903729 
L 276.194752 -163.903729 
L 275.793027 -163.903729 
L 275.391303 -163.903729 
L 274.989578 -163.903729 
L 274.587853 -163.903729 
L 274.186128 -163.903729 
L 273.784404 -163.903729 
L 273.382679 -163.903729 
L 272.980954 -163.903729 
L 272.579229 -163.903729 
L 272.177504 -163.903729 
L 271.77578 -163.903729 
L 271.374055 -163.903729 
L 270.97233 -163.903729 
L 270.570605 -163.903729 
L 270.16888 -163.903729 
L 269.767156 -163.903729 
L 269.365431 -163.903729 
L 268.963706 -163.903729 
L 268.561981 -163.903729 
L 268.160257 -163.903729 
L 267.758532 -163.903729 
L 267.356807 -163.903729 
L 266.955082 -163.903729 
L 266.553357 -163.903729 
L 266.151633 -163.903729 
L 265.749908 -163.903729 
L 265.348183 -163.903729 
L 264.946458 -163.903729 
L 264.544734 -163.903729 
L 264.143009 -163.903729 
L 263.741284 -163.903729 
L 263.339559 -163.903729 
L 262.937834 -163.903729 
L 262.53611 -163.903729 
L 262.134385 -163.903729 
L 261.73266 -163.903729 
L 261.330935 -163.903729 
L 260.92921 -163.903729 
L 260.527486 -163.903729 
L 260.125761 -163.903729 
L 259.724036 -163.903729 
L 259.322311 -163.903729 
L 258.920587 -163.903729 
L 258.518862 -163.903729 
L 258.117137 -163.903729 
L 257.715412 -163.903729 
L 257.313687 -163.903729 
L 256.911963 -163.903729 
L 256.510238 -163.903729 
L 256.108513 -163.903729 
L 255.706788 -163.903729 
L 255.305063 -163.903729 
L 254.903339 -163.903729 
L 254.501614 -163.903729 
L 254.099889 -163.903729 
L 253.698164 -163.903729 
L 253.29644 -163.903729 
L 252.894715 -163.903729 
L 252.49299 -163.903729 
L 252.091265 -163.903729 
L 251.68954 -163.903729 
L 251.287816 -163.903729 
L 250.886091 -163.903729 
L 250.484366 -163.903729 
L 250.082641 -163.903729 
L 249.680917 -163.903729 
L 249.279192 -163.903729 
L 248.877467 -163.903729 
L 248.475742 -163.903729 
L 248.074017 -163.903729 
L 247.672293 -163.903729 
L 247.270568 -163.903729 
L 246.868843 -163.903729 
L 246.467118 -163.903729 
L 246.065393 -163.903729 
L 245.663669 -163.903729 
L 245.261944 -163.903729 
L 244.860219 -163.903729 
L 244.458494 -163.903729 
L 244.05677 -163.903729 
L 243.655045 -163.903729 
L 243.25332 -163.903729 
L 242.851595 -163.903729 
L 242.44987 -163.903729 
L 242.048146 -163.903729 
L 241.646421 -163.903729 
L 241.244696 -163.903729 
L 240.842971 -163.903729 
L 240.441247 -163.903729 
L 240.039522 -163.903729 
L 239.637797 -163.903729 
L 239.236072 -163.903729 
L 238.834347 -163.903729 
L 238.432623 -163.903729 
L 238.030898 -163.903729 
L 237.629173 -163.903729 
L 237.227448 -163.903729 
L 236.825723 -163.903729 
L 236.423999 -163.903729 
L 236.022274 -163.903729 
L 235.620549 -163.903729 
L 235.218824 -163.903729 
L 234.8171 -163.903729 
L 234.415375 -163.903729 
L 234.01365 -163.903729 
L 233.611925 -163.903729 
L 233.2102 -163.903729 
L 232.808476 -163.903729 
L 232.406751 -163.903729 
L 232.005026 -163.903729 
L 231.603301 -163.903729 
L 231.201576 -163.903729 
L 230.799852 -163.903729 
L 230.398127 -163.903729 
L 229.996402 -163.903729 
L 229.594677 -163.903729 
L 229.192953 -163.903729 
L 228.791228 -163.903729 
L 228.389503 -163.903729 
L 227.987778 -163.903729 
L 227.586053 -163.903729 
L 227.184329 -163.903729 
L 226.782604 -163.903729 
L 226.380879 -163.903729 
L 225.979154 -163.903729 
L 225.57743 -163.903729 
L 225.175705 -163.903729 
L 224.77398 -163.903729 
L 224.372255 -163.903729 
L 223.97053 -163.903729 
L 223.568806 -163.903729 
L 223.167081 -163.903729 
L 222.765356 -163.903729 
L 222.363631 -163.903729 
L 221.961906 -163.903729 
L 221.560182 -163.903729 
L 221.158457 -163.903729 
L 220.756732 -163.903729 
L 220.355007 -163.903729 
L 219.953283 -163.903729 
L 219.551558 -163.903729 
L 219.149833 -163.903729 
L 218.748108 -163.903729 
L 218.346383 -163.903729 
L 217.944659 -163.903729 
L 217.542934 -163.903729 
L 217.141209 -163.903729 
L 216.739484 -163.903729 
L 216.33776 -163.903729 
L 215.936035 -163.903729 
L 215.53431 -163.903729 
L 215.132585 -163.903729 
L 214.73086 -163.903729 
L 214.329136 -163.903729 
L 213.927411 -163.903729 
L 213.525686 -163.903729 
L 213.123961 -163.903729 
L 212.722236 -163.903729 
L 212.320512 -163.903729 
L 211.918787 -163.903729 
L 211.517062 -163.903729 
L 211.115337 -163.903729 
L 210.713613 -163.903729 
L 210.311888 -163.903729 
L 209.910163 -163.903729 
L 209.508438 -163.903729 
L 209.106713 -163.903729 
L 208.704989 -163.903729 
L 208.303264 -163.903729 
L 207.901539 -163.903729 
L 207.499814 -163.903729 
L 207.098089 -163.903729 
L 206.696365 -163.903729 
L 206.29464 -163.903729 
L 205.892915 -163.903729 
L 205.49119 -163.903729 
L 205.089466 -163.903729 
L 204.687741 -163.903729 
L 204.286016 -163.903729 
L 203.884291 -163.903729 
L 203.482566 -163.903729 
L 203.080842 -163.903729 
L 202.679117 -163.903729 
L 202.277392 -163.903729 
L 201.875667 -163.903729 
L 201.473943 -163.903729 
L 201.072218 -163.903729 
L 200.670493 -163.903729 
L 200.268768 -163.903729 
L 199.867043 -163.903729 
L 199.465319 -163.903729 
L 199.063594 -163.903729 
L 198.661869 -163.903729 
L 198.260144 -163.903729 
L 197.858419 -163.903729 
L 197.456695 -163.903729 
L 197.05497 -163.903729 
L 196.653245 -163.903729 
L 196.25152 -163.903729 
L 195.849796 -163.903729 
L 195.448071 -163.903729 
L 195.046346 -163.903729 
L 194.644621 -163.903729 
L 194.242896 -163.903729 
L 193.841172 -163.903729 
L 193.439447 -163.903729 
L 193.037722 -163.903729 
L 192.635997 -163.903729 
L 192.234273 -163.903729 
L 191.832548 -163.903729 
L 191.430823 -163.903729 
L 191.029098 -163.903729 
L 190.627373 -163.903729 
L 190.225649 -163.903729 
L 189.823924 -163.903729 
L 189.422199 -163.903729 
L 189.020474 -163.903729 
L 188.618749 -163.903729 
L 188.217025 -163.903729 
L 187.8153 -163.903729 
L 187.413575 -163.903729 
L 187.01185 -163.903729 
L 186.610126 -163.903729 
L 186.208401 -163.903729 
L 185.806676 -163.903729 
L 185.404951 -163.903729 
L 185.003226 -163.903729 
L 184.601502 -163.903729 
L 184.199777 -163.903729 
L 183.798052 -163.903729 
L 183.396327 -163.903729 
L 182.994602 -163.903729 
L 182.592878 -163.903729 
L 182.191153 -163.903729 
L 181.789428 -163.903729 
L 181.387703 -163.903729 
L 180.985979 -163.903729 
L 180.584254 -163.903729 
L 180.182529 -163.903729 
L 179.780804 -163.903729 
L 179.379079 -163.903729 
L 178.977355 -163.903729 
L 178.57563 -163.903729 
L 178.173905 -163.903729 
L 177.77218 -163.903729 
L 177.370456 -163.903729 
L 176.968731 -163.903729 
L 176.567006 -163.903729 
L 176.165281 -163.903729 
L 175.763556 -163.903729 
L 175.361832 -163.903729 
L 174.960107 -163.903729 
L 174.558382 -163.903729 
L 174.156657 -163.903729 
L 173.754932 -163.903729 
L 173.353208 -163.903729 
L 172.951483 -163.903729 
L 172.549758 -163.903729 
L 172.148033 -163.903729 
L 171.746309 -163.903729 
L 171.344584 -163.903729 
L 170.942859 -163.903729 
L 170.541134 -163.903729 
L 170.139409 -163.903729 
L 169.737685 -163.903729 
L 169.33596 -163.903729 
L 168.934235 -163.903729 
L 168.53251 -163.903729 
L 168.130786 -163.903729 
L 167.729061 -163.903729 
L 167.327336 -163.903729 
L 166.925611 -163.903729 
L 166.523886 -163.903729 
L 166.122162 -163.903729 
L 165.720437 -163.903729 
L 165.318712 -163.903729 
L 164.916987 -163.903729 
L 164.515262 -163.903729 
L 164.113538 -163.903729 
L 163.711813 -163.903729 
L 163.310088 -163.903729 
L 162.908363 -163.903729 
L 162.506639 -163.903729 
L 162.104914 -163.903729 
L 161.703189 -163.903729 
L 161.301464 -163.903729 
L 160.899739 -163.903729 
L 160.498015 -163.903729 
L 160.09629 -163.903729 
L 159.694565 -163.903729 
L 159.29284 -163.903729 
L 158.891115 -163.903729 
L 158.489391 -163.903729 
L 158.087666 -163.903729 
L 157.685941 -163.903729 
L 157.284216 -163.903729 
L 156.882492 -163.903729 
L 156.480767 -163.903729 
L 156.079042 -163.903729 
L 155.677317 -163.903729 
L 155.275592 -163.903729 
L 154.873868 -163.903729 
L 154.472143 -163.903729 
L 154.070418 -163.903729 
L 153.668693 -163.903729 
L 153.266969 -163.903729 
L 152.865244 -163.903729 
L 152.463519 -163.903729 
L 152.061794 -163.903729 
L 151.660069 -163.903729 
L 151.258345 -163.903729 
L 150.85662 -163.903729 
L 150.454895 -163.903729 
L 150.05317 -163.903729 
L 149.651445 -163.903729 
L 149.249721 -163.903729 
L 148.847996 -163.903729 
L 148.446271 -163.903729 
L 148.044546 -163.903729 
L 147.642822 -163.903729 
L 147.241097 -163.903729 
L 146.839372 -163.903729 
L 146.437647 -163.903729 
L 146.035922 -163.903729 
L 145.634198 -163.903729 
L 145.232473 -163.903729 
L 144.830748 -163.903729 
L 144.429023 -163.903729 
L 144.027299 -163.903729 
L 143.625574 -163.903729 
L 143.223849 -163.903729 
L 142.822124 -163.903729 
L 142.420399 -163.903729 
L 142.018675 -163.903729 
L 141.61695 -163.903729 
L 141.215225 -163.903729 
L 140.8135 -163.903729 
L 140.411775 -163.903729 
L 140.010051 -163.903729 
L 139.608326 -163.903729 
L 139.206601 -163.903729 
L 138.804876 -163.903729 
L 138.403152 -163.903729 
L 138.001427 -163.903729 
L 137.599702 -163.903729 
L 137.197977 -163.903729 
L 136.796252 -163.903729 
L 136.394528 -163.903729 
L 135.992803 -163.903729 
L 135.591078 -163.903729 
L 135.189353 -163.903729 
L 134.787628 -163.903729 
L 134.385904 -163.903729 
L 133.984179 -163.903729 
L 133.582454 -163.903729 
L 133.180729 -163.903729 
L 132.779005 -163.903729 
L 132.37728 -163.903729 
L 131.975555 -163.903729 
L 131.57383 -163.903729 
L 131.172105 -163.903729 
L 130.770381 -163.903729 
L 130.368656 -163.903729 
L 129.966931 -163.903729 
L 129.565206 -163.903729 
L 129.163482 -163.903729 
L 128.761757 -163.903729 
L 128.360032 -163.903729 
L 127.958307 -163.903729 
L 127.556582 -163.903729 
L 127.154858 -163.903729 
L 126.753133 -163.903729 
L 126.351408 -163.903729 
L 125.949683 -163.903729 
L 125.547958 -163.903729 
L 125.146234 -163.903729 
L 124.744509 -163.903729 
L 124.342784 -163.903729 
L 123.941059 -163.903729 
L 123.539335 -163.903729 
L 123.13761 -163.903729 
L 122.735885 -163.903729 
L 122.33416 -163.903729 
L 121.932435 -163.903729 
L 121.530711 -163.903729 
L 121.128986 -163.903729 
L 120.727261 -163.903729 
L 120.325536 -163.903729 
L 119.923812 -163.903729 
L 119.522087 -163.903729 
L 119.120362 -163.903729 
L 118.718637 -163.903729 
L 118.316912 -163.903729 
L 117.915188 -163.903729 
L 117.513463 -163.903729 
L 117.111738 -163.903729 
L 116.710013 -163.903729 
L 116.308288 -163.903729 
L 115.906564 -163.903729 
L 115.504839 -163.903729 
L 115.103114 -163.903729 
L 114.701389 -163.903729 
L 114.299665 -163.903729 
L 113.89794 -163.903729 
L 113.496215 -163.903729 
L 113.09449 -163.903729 
L 112.692765 -163.903729 
L 112.291041 -163.903729 
L 111.889316 -163.903729 
L 111.487591 -163.903729 
L 111.085866 -163.903729 
L 110.684141 -163.903729 
L 110.282417 -163.903729 
L 109.880692 -163.903729 
L 109.478967 -163.903729 
L 109.077242 -163.903729 
L 108.675518 -163.903729 
L 108.273793 -163.903729 
L 107.872068 -163.903729 
L 107.470343 -163.903729 
L 107.068618 -163.903729 
L 106.666894 -163.903729 
L 106.265169 -163.903729 
L 105.863444 -163.903729 
L 105.461719 -163.903729 
L 105.059995 -163.903729 
L 104.65827 -163.903729 
L 104.256545 -163.903729 
L 103.85482 -163.903729 
L 103.453095 -163.903729 
L 103.051371 -163.903729 
L 102.649646 -163.903729 
L 102.247921 -163.903729 
L 101.846196 -163.903729 
L 101.444471 -163.903729 
L 101.042747 -163.903729 
L 100.641022 -163.903729 
L 100.239297 -163.903729 
L 99.837572 -163.903729 
L 99.435848 -163.903729 
L 99.034123 -163.903729 
L 98.632398 -163.903729 
L 98.230673 -163.903729 
L 97.828948 -163.903729 
L 97.427224 -163.903729 
L 97.025499 -163.903729 
L 96.623774 -163.903729 
L 96.222049 -163.903729 
L 95.820325 -163.903729 
L 95.4186 -163.903729 
L 95.016875 -163.903729 
L 94.61515 -163.903729 
L 94.213425 -163.903729 
L 93.811701 -163.903729 
L 93.409976 -163.903729 
L 93.008251 -163.903729 
L 92.606526 -163.903729 
L 92.204801 -163.903729 
L 91.803077 -163.903729 
L 91.401352 -163.903729 
L 90.999627 -163.903729 
L 90.597902 -163.903729 
L 90.196178 -163.903729 
L 89.794453 -163.903729 
L 89.392728 -163.903729 
L 88.991003 -163.903729 
L 88.589278 -163.903729 
L 88.187554 -163.903729 
L 87.785829 -163.903729 
L 87.384104 -163.903729 
L 86.982379 -163.903729 
L 86.580654 -163.903729 
L 86.17893 -163.903729 
L 85.777205 -163.903729 
L 85.37548 -163.903729 
L 84.973755 -163.903729 
L 84.572031 -163.903729 
L 84.170306 -163.903729 
L 83.768581 -163.903729 
L 83.366856 -163.903729 
L 82.965131 -163.903729 
L 82.563407 -163.903729 
L 82.161682 -163.903729 
L 81.759957 -163.903729 
L 81.358232 -163.903729 
L 80.956508 -163.903729 
L 80.554783 -163.903729 
L 80.153058 -163.903729 
L 79.751333 -163.903729 
L 79.349608 -163.903729 
L 78.947884 -163.903729 
L 78.546159 -163.903729 
L 78.144434 -163.903729 
L 77.742709 -163.903729 
L 77.340984 -163.903729 
L 76.93926 -163.903729 
L 76.537535 -163.903729 
L 76.13581 -163.903729 
L 75.734085 -163.903729 
L 75.332361 -163.903729 
L 74.930636 -163.903729 
L 74.528911 -163.903729 
L 74.127186 -163.903729 
L 73.725461 -163.903729 
L 73.323737 -163.903729 
L 72.922012 -163.903729 
L 72.520287 -163.903729 
L 72.118562 -163.903729 
L 71.716838 -163.903729 
L 71.315113 -163.903729 
L 70.913388 -163.903729 
L 70.511663 -163.903729 
L 70.109938 -163.903729 
L 69.708214 -163.903729 
L 69.306489 -163.903729 
L 68.904764 -163.903729 
L 68.503039 -163.903729 
L 68.101314 -163.903729 
L 67.69959 -163.903729 
L 67.297865 -163.903729 
L 66.89614 -163.903729 
L 66.494415 -163.903729 
L 66.092691 -163.903729 
L 65.690966 -163.903729 
L 65.289241 -163.903729 
L 64.887516 -163.903729 
L 64.485791 -163.903729 
L 64.084067 -163.903729 
L 63.682342 -163.903729 
L 63.280617 -163.903729 
L 62.878892 -163.903729 
L 62.477167 -163.903729 
L 62.075443 -163.903729 
L 61.673718 -163.903729 
L 61.271993 -163.903729 
L 60.870268 -163.903729 
L 60.468544 -163.903729 
L 60.066819 -163.903729 
L 59.665094 -163.903729 
L 59.263369 -163.903729 
L 58.861644 -163.903729 
L 58.45992 -163.903729 
L 58.058195 -163.903729 
L 57.65647 -163.903729 
L 57.254745 -163.903729 
L 56.853021 -163.903729 
L 56.451296 -163.903729 
L 56.049571 -163.903729 
L 55.647846 -163.903729 
L 55.246121 -163.903729 
L 54.844397 -163.903729 
L 54.442672 -163.903729 
L 54.040947 -163.903729 
L 53.639222 -163.903729 
L 53.237497 -163.903729 
L 52.835773 -163.903729 
L 52.434048 -163.903729 
L 52.032323 -163.903729 
L 51.630598 -163.903729 
L 51.228874 -163.903729 
L 50.827149 -163.903729 
L 50.425424 -163.903729 
L 50.023699 -163.903729 
L 49.621974 -163.903729 
L 49.22025 -163.903729 
L 48.818525 -163.903729 
L 48.4168 -163.903729 
L 48.015075 -163.903729 
L 47.613351 -163.903729 
L 47.211626 -163.903729 
L 46.809901 -163.903729 
L 46.408176 -163.903729 
L 46.006451 -163.903729 
L 45.604727 -163.903729 
L 45.203002 -163.903729 
L 44.801277 -163.903729 
L 44.399552 -163.903729 
z
" style="stroke: #f4f4f4"/>
    </defs>
    <g clip-path="url(#p092d186264)">
     <use xlink:href="#m1e25f0612d" x="0" y="392.5152" style="fill: #f4f4f4; stroke: #f4f4f4"/>
    </g>
   </g>
   <g id="matplotlib.axis_1">
    <g id="xtick_1">
     <g id="line2d_1">
      <path d="M 92.552963 319.248 
L 92.552963 60.912 
" clip-path="url(#p092d186264)" style="fill: none; stroke: #e7e7e7; stroke-width: 0.7; stroke-linecap: square"/>
     </g>
     <g id="line2d_2">
      <defs>
       <path id="m5996491e06" d="M 0 0 
L 0 3.5 
" style="stroke: #1f1f1f; stroke-width: 0.8"/>
      </defs>
      <g>
       <use xlink:href="#m5996491e06" x="92.552963" y="319.248" style="fill: #1f1f1f; stroke: #1f1f1f; stroke-width: 0.8"/>
      </g>
     </g>
     <g id="text_1">
      <text style="font-size: 8.3px; font-family: 'DejaVu Sans'; text-anchor: middle; fill: #1f1f1f" x="92.552963" y="332.554703" transform="rotate(-0 92.552963 332.554703)">40</text>
     </g>
    </g>
    <g id="xtick_2">
     <g id="line2d_3">
      <path d="M 140.706374 319.248 
L 140.706374 60.912 
" clip-path="url(#p092d186264)" style="fill: none; stroke: #e7e7e7; stroke-width: 0.7; stroke-linecap: square"/>
     </g>
     <g id="line2d_4">
      <g>
       <use xlink:href="#m5996491e06" x="140.706374" y="319.248" style="fill: #1f1f1f; stroke: #1f1f1f; stroke-width: 0.8"/>
      </g>
     </g>
     <g id="text_2">
      <text style="font-size: 8.3px; font-family: 'DejaVu Sans'; text-anchor: middle; fill: #1f1f1f" x="140.706374" y="332.554703" transform="rotate(-0 140.706374 332.554703)">60</text>
     </g>
    </g>
    <g id="xtick_3">
     <g id="line2d_5">
      <path d="M 188.859784 319.248 
L 188.859784 60.912 
" clip-path="url(#p092d186264)" style="fill: none; stroke: #e7e7e7; stroke-width: 0.7; stroke-linecap: square"/>
     </g>
     <g id="line2d_6">
      <g>
       <use xlink:href="#m5996491e06" x="188.859784" y="319.248" style="fill: #1f1f1f; stroke: #1f1f1f; stroke-width: 0.8"/>
      </g>
     </g>
     <g id="text_3">
      <text style="font-size: 8.3px; font-family: 'DejaVu Sans'; text-anchor: middle; fill: #1f1f1f" x="188.859784" y="332.554703" transform="rotate(-0 188.859784 332.554703)">80</text>
     </g>
    </g>
    <g id="xtick_4">
     <g id="line2d_7">
      <path d="M 237.013195 319.248 
L 237.013195 60.912 
" clip-path="url(#p092d186264)" style="fill: none; stroke: #e7e7e7; stroke-width: 0.7; stroke-linecap: square"/>
     </g>
     <g id="line2d_8">
      <g>
       <use xlink:href="#m5996491e06" x="237.013195" y="319.248" style="fill: #1f1f1f; stroke: #1f1f1f; stroke-width: 0.8"/>
      </g>
     </g>
     <g id="text_4">
      <text style="font-size: 8.3px; font-family: 'DejaVu Sans'; text-anchor: middle; fill: #1f1f1f" x="237.013195" y="332.554703" transform="rotate(-0 237.013195 332.554703)">100</text>
     </g>
    </g>
    <g id="xtick_5">
     <g id="line2d_9">
      <path d="M 285.166606 319.248 
L 285.166606 60.912 
" clip-path="url(#p092d186264)" style="fill: none; stroke: #e7e7e7; stroke-width: 0.7; stroke-linecap: square"/>
     </g>
     <g id="line2d_10">
      <g>
       <use xlink:href="#m5996491e06" x="285.166606" y="319.248" style="fill: #1f1f1f; stroke: #1f1f1f; stroke-width: 0.8"/>
      </g>
     </g>
     <g id="text_5">
      <text style="font-size: 8.3px; font-family: 'DejaVu Sans'; text-anchor: middle; fill: #1f1f1f" x="285.166606" y="332.554703" transform="rotate(-0 285.166606 332.554703)">120</text>
     </g>
    </g>
    <g id="xtick_6">
     <g id="line2d_11">
      <path d="M 333.320016 319.248 
L 333.320016 60.912 
" clip-path="url(#p092d186264)" style="fill: none; stroke: #e7e7e7; stroke-width: 0.7; stroke-linecap: square"/>
     </g>
     <g id="line2d_12">
      <g>
       <use xlink:href="#m5996491e06" x="333.320016" y="319.248" style="fill: #1f1f1f; stroke: #1f1f1f; stroke-width: 0.8"/>
      </g>
     </g>
     <g id="text_6">
      <text style="font-size: 8.3px; font-family: 'DejaVu Sans'; text-anchor: middle; fill: #1f1f1f" x="333.320016" y="332.554703" transform="rotate(-0 333.320016 332.554703)">140</text>
     </g>
    </g>
    <g id="xtick_7">
     <g id="line2d_13">
      <path d="M 381.473427 319.248 
L 381.473427 60.912 
" clip-path="url(#p092d186264)" style="fill: none; stroke: #e7e7e7; stroke-width: 0.7; stroke-linecap: square"/>
     </g>
     <g id="line2d_14">
      <g>
       <use xlink:href="#m5996491e06" x="381.473427" y="319.248" style="fill: #1f1f1f; stroke: #1f1f1f; stroke-width: 0.8"/>
      </g>
     </g>
     <g id="text_7">
      <text style="font-size: 8.3px; font-family: 'DejaVu Sans'; text-anchor: middle; fill: #1f1f1f" x="381.473427" y="332.554703" transform="rotate(-0 381.473427 332.554703)">160</text>
     </g>
    </g>
    <g id="text_8">
     <!-- Drive frequency $\nu_d$ [MHz] -->
     <g style="fill: #1f1f1f" transform="translate(165.077342 345.500844)">
      <text>
       <tspan x="0" y="-0.40625" style="font-size: 9.5px; font-family: 'DejaVu Sans'; fill: #1f1f1f">D</tspan>
       <tspan x="7.315186" y="-0.40625" style="font-size: 9.5px; font-family: 'DejaVu Sans'; fill: #1f1f1f">r</tspan>
       <tspan x="11.220947" y="-0.40625" style="font-size: 9.5px; font-family: 'DejaVu Sans'; fill: #1f1f1f">i</tspan>
       <tspan x="13.860352" y="-0.40625" style="font-size: 9.5px; font-family: 'DejaVu Sans'; fill: #1f1f1f">v</tspan>
       <tspan x="19.482422" y="-0.40625" style="font-size: 9.5px; font-family: 'DejaVu Sans'; fill: #1f1f1f">e</tspan>
       <tspan x="25.327148" y="-0.40625" style="font-size: 9.5px; font-family: 'DejaVu Sans'; fill: #1f1f1f"> </tspan>
       <tspan x="28.346924" y="-0.40625" style="font-size: 9.5px; font-family: 'DejaVu Sans'; fill: #1f1f1f">f</tspan>
       <tspan x="31.691406" y="-0.40625" style="font-size: 9.5px; font-family: 'DejaVu Sans'; fill: #1f1f1f">r</tspan>
       <tspan x="35.597168" y="-0.40625" style="font-size: 9.5px; font-family: 'DejaVu Sans'; fill: #1f1f1f">e</tspan>
       <tspan x="41.441895" y="-0.40625" style="font-size: 9.5px; font-family: 'DejaVu Sans'; fill: #1f1f1f">q</tspan>
       <tspan x="47.472168" y="-0.40625" style="font-size: 9.5px; font-family: 'DejaVu Sans'; fill: #1f1f1f">u</tspan>
       <tspan x="53.493164" y="-0.40625" style="font-size: 9.5px; font-family: 'DejaVu Sans'; fill: #1f1f1f">e</tspan>
       <tspan x="59.337891" y="-0.40625" style="font-size: 9.5px; font-family: 'DejaVu Sans'; fill: #1f1f1f">n</tspan>
       <tspan x="65.358887" y="-0.40625" style="font-size: 9.5px; font-family: 'DejaVu Sans'; fill: #1f1f1f">c</tspan>
       <tspan x="70.582031" y="-0.40625" style="font-size: 9.5px; font-family: 'DejaVu Sans'; fill: #1f1f1f">y</tspan>
       <tspan x="76.204102" y="-0.40625" style="font-size: 9.5px; font-family: 'DejaVu Sans'; fill: #1f1f1f"> </tspan>
       <tspan x="89.025146" y="-0.40625" style="font-size: 9.5px; font-family: 'DejaVu Sans'; fill: #1f1f1f"> </tspan>
       <tspan x="92.044922" y="-0.40625" style="font-size: 9.5px; font-family: 'DejaVu Sans'; fill: #1f1f1f">[</tspan>
       <tspan x="95.751221" y="-0.40625" style="font-size: 9.5px; font-family: 'DejaVu Sans'; fill: #1f1f1f">M</tspan>
       <tspan x="103.947754" y="-0.40625" style="font-size: 9.5px; font-family: 'DejaVu Sans'; fill: #1f1f1f">H</tspan>
       <tspan x="111.091309" y="-0.40625" style="font-size: 9.5px; font-family: 'DejaVu Sans'; fill: #1f1f1f">z</tspan>
       <tspan x="116.077881" y="-0.40625" style="font-size: 9.5px; font-family: 'DejaVu Sans'; fill: #1f1f1f">]</tspan>
       <tspan x="79.223877" y="-0.40625" style="font-style: oblique; font-size: 9.5px; font-family: 'DejaVu Sans'; fill: #1f1f1f">ν</tspan>
       <tspan x="84.530518" y="1.234375" style="font-style: oblique; font-size: 6.65px; font-family: 'DejaVu Sans'; fill: #1f1f1f">d</tspan>
      </text>
     </g>
    </g>
   </g>
   <g id="matplotlib.axis_2">
    <g id="ytick_1">
     <g id="line2d_15">
      <path d="M 54.030234 282.030102 
L 395.91945 282.030102 
" clip-path="url(#p092d186264)" style="fill: none; stroke: #e7e7e7; stroke-width: 0.7; stroke-linecap: square"/>
     </g>
     <g id="line2d_16">
      <defs>
       <path id="m0e48d9ec7b" d="M 0 0 
L -3.5 0 
" style="stroke: #1f1f1f; stroke-width: 0.8"/>
      </defs>
      <g>
       <use xlink:href="#m0e48d9ec7b" x="54.030234" y="282.030102" style="fill: #1f1f1f; stroke: #1f1f1f; stroke-width: 0.8"/>
      </g>
     </g>
     <g id="text_9">
      <text style="font-size: 8.3px; font-family: 'DejaVu Sans'; text-anchor: end; fill: #1f1f1f" x="47.030234" y="285.183453" transform="rotate(-0 47.030234 285.183453)">−1</text>
     </g>
    </g>
    <g id="ytick_2">
     <g id="line2d_17">
      <path d="M 54.030234 238.244339 
L 395.91945 238.244339 
" clip-path="url(#p092d186264)" style="fill: none; stroke: #e7e7e7; stroke-width: 0.7; stroke-linecap: square"/>
     </g>
     <g id="line2d_18">
      <g>
       <use xlink:href="#m0e48d9ec7b" x="54.030234" y="238.244339" style="fill: #1f1f1f; stroke: #1f1f1f; stroke-width: 0.8"/>
      </g>
     </g>
     <g id="text_10">
      <text style="font-size: 8.3px; font-family: 'DejaVu Sans'; text-anchor: end; fill: #1f1f1f" x="47.030234" y="241.397691" transform="rotate(-0 47.030234 241.397691)">0</text>
     </g>
    </g>
    <g id="ytick_3">
     <g id="line2d_19">
      <path d="M 54.030234 194.458576 
L 395.91945 194.458576 
" clip-path="url(#p092d186264)" style="fill: none; stroke: #e7e7e7; stroke-width: 0.7; stroke-linecap: square"/>
     </g>
     <g id="line2d_20">
      <g>
       <use xlink:href="#m0e48d9ec7b" x="54.030234" y="194.458576" style="fill: #1f1f1f; stroke: #1f1f1f; stroke-width: 0.8"/>
      </g>
     </g>
     <g id="text_11">
      <text style="font-size: 8.3px; font-family: 'DejaVu Sans'; text-anchor: end; fill: #1f1f1f" x="47.030234" y="197.611928" transform="rotate(-0 47.030234 197.611928)">1</text>
     </g>
    </g>
    <g id="ytick_4">
     <g id="line2d_21">
      <path d="M 54.030234 150.672814 
L 395.91945 150.672814 
" clip-path="url(#p092d186264)" style="fill: none; stroke: #e7e7e7; stroke-width: 0.7; stroke-linecap: square"/>
     </g>
     <g id="line2d_22">
      <g>
       <use xlink:href="#m0e48d9ec7b" x="54.030234" y="150.672814" style="fill: #1f1f1f; stroke: #1f1f1f; stroke-width: 0.8"/>
      </g>
     </g>
     <g id="text_12">
      <text style="font-size: 8.3px; font-family: 'DejaVu Sans'; text-anchor: end; fill: #1f1f1f" x="47.030234" y="153.826165" transform="rotate(-0 47.030234 153.826165)">2</text>
     </g>
    </g>
    <g id="ytick_5">
     <g id="line2d_23">
      <path d="M 54.030234 106.887051 
L 395.91945 106.887051 
" clip-path="url(#p092d186264)" style="fill: none; stroke: #e7e7e7; stroke-width: 0.7; stroke-linecap: square"/>
     </g>
     <g id="line2d_24">
      <g>
       <use xlink:href="#m0e48d9ec7b" x="54.030234" y="106.887051" style="fill: #1f1f1f; stroke: #1f1f1f; stroke-width: 0.8"/>
      </g>
     </g>
     <g id="text_13">
      <text style="font-size: 8.3px; font-family: 'DejaVu Sans'; text-anchor: end; fill: #1f1f1f" x="47.030234" y="110.040402" transform="rotate(-0 47.030234 110.040402)">3</text>
     </g>
    </g>
    <g id="ytick_6">
     <g id="line2d_25">
      <path d="M 54.030234 63.101288 
L 395.91945 63.101288 
" clip-path="url(#p092d186264)" style="fill: none; stroke: #e7e7e7; stroke-width: 0.7; stroke-linecap: square"/>
     </g>
     <g id="line2d_26">
      <g>
       <use xlink:href="#m0e48d9ec7b" x="54.030234" y="63.101288" style="fill: #1f1f1f; stroke: #1f1f1f; stroke-width: 0.8"/>
      </g>
     </g>
     <g id="text_14">
      <text style="font-size: 8.3px; font-family: 'DejaVu Sans'; text-anchor: end; fill: #1f1f1f" x="47.030234" y="66.25464" transform="rotate(-0 47.030234 66.25464)">4</text>
     </g>
    </g>
    <g id="text_15">
     <!-- Baseline-subtracted $\Delta T_2/T_2$ [%] -->
     <g style="fill: #1f1f1f" transform="translate(28.818516 263.99) rotate(-90)">
      <text>
       <tspan x="0" y="-0.40625" style="font-size: 9.5px; font-family: 'DejaVu Sans'; fill: #1f1f1f">B</tspan>
       <tspan x="6.517334" y="-0.40625" style="font-size: 9.5px; font-family: 'DejaVu Sans'; fill: #1f1f1f">a</tspan>
       <tspan x="12.338867" y="-0.40625" style="font-size: 9.5px; font-family: 'DejaVu Sans'; fill: #1f1f1f">s</tspan>
       <tspan x="17.28833" y="-0.40625" style="font-size: 9.5px; font-family: 'DejaVu Sans'; fill: #1f1f1f">e</tspan>
       <tspan x="23.133057" y="-0.40625" style="font-size: 9.5px; font-family: 'DejaVu Sans'; fill: #1f1f1f">l</tspan>
       <tspan x="25.772461" y="-0.40625" style="font-size: 9.5px; font-family: 'DejaVu Sans'; fill: #1f1f1f">i</tspan>
       <tspan x="28.411865" y="-0.40625" style="font-size: 9.5px; font-family: 'DejaVu Sans'; fill: #1f1f1f">n</tspan>
       <tspan x="34.432861" y="-0.40625" style="font-size: 9.5px; font-family: 'DejaVu Sans'; fill: #1f1f1f">e</tspan>
       <tspan x="40.277588" y="-0.40625" style="font-size: 9.5px; font-family: 'DejaVu Sans'; fill: #1f1f1f">-</tspan>
       <tspan x="43.705566" y="-0.40625" style="font-size: 9.5px; font-family: 'DejaVu Sans'; fill: #1f1f1f">s</tspan>
       <tspan x="48.655029" y="-0.40625" style="font-size: 9.5px; font-family: 'DejaVu Sans'; fill: #1f1f1f">u</tspan>
       <tspan x="54.676025" y="-0.40625" style="font-size: 9.5px; font-family: 'DejaVu Sans'; fill: #1f1f1f">b</tspan>
       <tspan x="60.706299" y="-0.40625" style="font-size: 9.5px; font-family: 'DejaVu Sans'; fill: #1f1f1f">t</tspan>
       <tspan x="64.431152" y="-0.40625" style="font-size: 9.5px; font-family: 'DejaVu Sans'; fill: #1f1f1f">r</tspan>
       <tspan x="68.336914" y="-0.40625" style="font-size: 9.5px; font-family: 'DejaVu Sans'; fill: #1f1f1f">a</tspan>
       <tspan x="74.158447" y="-0.40625" style="font-size: 9.5px; font-family: 'DejaVu Sans'; fill: #1f1f1f">c</tspan>
       <tspan x="79.381592" y="-0.40625" style="font-size: 9.5px; font-family: 'DejaVu Sans'; fill: #1f1f1f">t</tspan>
       <tspan x="83.106445" y="-0.40625" style="font-size: 9.5px; font-family: 'DejaVu Sans'; fill: #1f1f1f">e</tspan>
       <tspan x="88.951172" y="-0.40625" style="font-size: 9.5px; font-family: 'DejaVu Sans'; fill: #1f1f1f">d</tspan>
       <tspan x="94.981445" y="-0.40625" style="font-size: 9.5px; font-family: 'DejaVu Sans'; fill: #1f1f1f"> </tspan>
       <tspan x="98.001221" y="-0.40625" style="font-size: 9.5px; font-family: 'DejaVu Sans'; fill: #1f1f1f">Δ</tspan>
       <tspan x="114.807349" y="-0.40625" style="font-size: 9.5px; font-family: 'DejaVu Sans'; fill: #1f1f1f">/</tspan>
       <tspan x="128.315381" y="-0.40625" style="font-size: 9.5px; font-family: 'DejaVu Sans'; fill: #1f1f1f"> </tspan>
       <tspan x="131.335156" y="-0.40625" style="font-size: 9.5px; font-family: 'DejaVu Sans'; fill: #1f1f1f">[</tspan>
       <tspan x="135.041455" y="-0.40625" style="font-size: 9.5px; font-family: 'DejaVu Sans'; fill: #1f1f1f">%</tspan>
       <tspan x="144.068311" y="-0.40625" style="font-size: 9.5px; font-family: 'DejaVu Sans'; fill: #1f1f1f">]</tspan>
       <tspan x="104.5" y="-0.40625" style="font-style: oblique; font-size: 9.5px; font-family: 'DejaVu Sans'; fill: #1f1f1f">T</tspan>
       <tspan x="118.008032" y="-0.40625" style="font-style: oblique; font-size: 9.5px; font-family: 'DejaVu Sans'; fill: #1f1f1f">T</tspan>
       <tspan x="110.302979" y="1.234375" style="font-size: 6.65px; font-family: 'DejaVu Sans'; fill: #1f1f1f">2</tspan>
       <tspan x="123.811011" y="1.234375" style="font-size: 6.65px; font-family: 'DejaVu Sans'; fill: #1f1f1f">2</tspan>
      </text>
     </g>
    </g>
   </g>
   <g id="line2d_27">
    <path d="M 54.030234 238.244339 
L 395.91945 238.244339 
" clip-path="url(#p092d186264)" style="fill: none; stroke: #1f1f1f; stroke-width: 0.9; stroke-linecap: square"/>
   </g>
   <g id="line2d_28">
    <path d="M 357.396722 319.248 
L 357.396722 60.912 
" clip-path="url(#p092d186264)" style="fill: none; stroke-dasharray: 4.07,1.76; stroke-dashoffset: 0; stroke: #c0392b; stroke-width: 1.1"/>
   </g>
   <g id="line2d_29">
    <path d="M 44.399552 238.242176 
L 55.647846 238.127745 
L 59.263369 237.900853 
L 62.075443 237.500494 
L 64.084067 236.998579 
L 65.690966 236.402929 
L 67.297865 235.574591 
L 68.904764 234.447748 
L 70.109938 233.362579 
L 71.315113 232.035131 
L 72.520287 230.432144 
L 73.725461 228.521636 
L 74.930636 226.274781 
L 76.537535 222.716196 
L 78.144434 218.485351 
L 79.751333 213.583172 
L 81.759957 206.583855 
L 84.170306 197.185655 
L 89.794453 174.661192 
L 91.401352 169.265134 
L 92.606526 165.844054 
L 93.811701 163.075216 
L 94.61515 161.634986 
L 95.4186 160.543619 
L 96.222049 159.816683 
L 97.025499 159.464632 
L 97.828948 159.492549 
L 98.632398 159.900033 
L 99.435848 160.681198 
L 100.239297 161.824824 
L 101.042747 163.31462 
L 102.247921 166.151338 
L 103.453095 169.630895 
L 105.059995 175.087945 
L 107.068618 182.830244 
L 113.496215 208.479122 
L 115.504839 215.239901 
L 117.111738 219.92761 
L 118.718637 223.939335 
L 120.325536 227.286327 
L 121.932435 230.010936 
L 123.13761 231.683566 
L 124.342784 233.072944 
L 125.949683 234.542098 
L 127.556582 235.644626 
L 129.163482 236.453775 
L 130.770381 237.034693 
L 132.779005 237.523337 
L 135.189353 237.871988 
L 138.403152 238.100154 
L 143.625574 238.218173 
L 159.694565 238.244301 
L 211.115337 238.138935 
L 215.936035 237.890877 
L 219.149833 237.499955 
L 221.560182 236.984595 
L 223.568806 236.332502 
L 225.175705 235.612008 
L 226.782604 234.664559 
L 228.389503 233.43596 
L 229.996402 231.865122 
L 231.603301 229.885181 
L 233.2102 227.425415 
L 234.8171 224.414025 
L 236.423999 220.78184 
L 238.030898 216.466883 
L 239.637797 211.419674 
L 241.244696 205.609019 
L 242.851595 199.027928 
L 244.860219 189.756124 
L 246.868843 179.440144 
L 249.680917 163.671004 
L 256.108513 126.913266 
L 258.117137 117.08147 
L 259.724036 110.386673 
L 260.92921 106.200461 
L 262.134385 102.822994 
L 262.937834 101.054976 
L 263.741284 99.693117 
L 264.544734 98.749904 
L 265.348183 98.234033 
L 266.151633 98.150277 
L 266.955082 98.499411 
L 267.758532 99.278204 
L 268.561981 100.479463 
L 269.365431 102.092148 
L 270.16888 104.10154 
L 271.374055 107.818816 
L 272.579229 112.312611 
L 274.186128 119.358525 
L 276.194752 129.522446 
L 278.605101 143.039651 
L 285.032697 179.927722 
L 287.443046 192.133663 
L 289.45167 201.127305 
L 291.058569 207.473072 
L 292.665468 213.047626 
L 294.272367 217.866001 
L 295.879267 221.965631 
L 297.486166 225.40043 
L 299.093065 228.235123 
L 300.699964 230.540147 
L 302.306863 232.387349 
L 303.913762 233.846575 
L 305.520661 234.983177 
L 307.127561 235.856393 
L 309.136184 236.656463 
L 311.144808 237.212523 
L 313.555157 237.655363 
L 317.17068 238.052022 
L 324.000001 238.712017 
L 326.41035 239.184151 
L 328.418974 239.803383 
L 330.025873 240.509375 
L 331.632772 241.458261 
L 333.239671 242.704887 
L 334.846571 244.303362 
L 336.45347 246.301668 
L 338.060369 248.734966 
L 339.667268 251.618114 
L 341.274167 254.938229 
L 343.282791 259.627735 
L 346.094865 266.859913 
L 349.710388 276.100558 
L 351.317287 279.672577 
L 352.522461 281.962943 
L 353.727635 283.836859 
L 354.93281 285.231414 
L 355.736259 285.8704 
L 356.539709 286.264695 
L 357.343158 286.408114 
L 358.146608 286.298402 
L 358.950058 285.937285 
L 359.753507 285.33043 
L 360.556957 284.487292 
L 361.762131 282.80889 
L 362.967305 280.685867 
L 364.574205 277.285872 
L 366.582828 272.390385 
L 373.010425 256.074305 
L 375.019049 251.82648 
L 376.625948 248.913676 
L 378.232847 246.45096 
L 379.839746 244.425202 
L 381.446645 242.802521 
L 383.053545 241.535825 
L 384.660444 240.571626 
L 386.267343 239.8556 
L 388.275967 239.23222 
L 390.686315 238.770229 
L 393.498389 238.481723 
L 397.515637 238.312478 
L 405.550132 238.248122 
L 405.550132 238.248122 
" clip-path="url(#p092d186264)" style="fill: none; stroke: #2c5d8a; stroke-width: 1.8; stroke-linecap: square"/>
   </g>
   <g id="line2d_30">
    <path d="M 44.399552 236.124453 
L 52.434048 236.265152 
L 60.468544 236.628065 
L 68.904764 237.233824 
L 78.947884 238.191707 
L 107.872068 241.11745 
L 115.504839 241.562525 
L 122.33416 241.738809 
L 128.761757 241.688155 
L 135.189353 241.419035 
L 142.018675 240.901454 
L 149.249721 240.122785 
L 158.087666 238.927031 
L 185.404951 235.0374 
L 192.234273 234.397829 
L 198.661869 234.025672 
L 204.687741 233.904556 
L 210.713613 234.013723 
L 216.739484 234.34901 
L 223.167081 234.935823 
L 230.398127 235.832965 
L 239.637797 237.230456 
L 260.527486 240.486646 
L 267.758532 241.343402 
L 274.186128 241.891574 
L 280.212 242.194867 
L 286.237872 242.282269 
L 292.263744 242.155107 
L 298.69134 241.798756 
L 305.922386 241.163882 
L 314.358607 240.190739 
L 345.291415 236.393779 
L 352.924186 235.821962 
L 360.155232 235.507708 
L 367.386278 235.423212 
L 375.019049 235.570138 
L 383.053545 235.949189 
L 393.096664 236.656387 
L 405.550132 237.696165 
L 405.550132 237.696165 
" clip-path="url(#p092d186264)" style="fill: none; stroke-dasharray: 4.44,1.92; stroke-dashoffset: 0; stroke: #666666; stroke-width: 1.2"/>
   </g>
   <g id="patch_5">
    <path d="M 54.030234 319.248 
L 54.030234 60.912 
" style="fill: none; stroke: #1f1f1f; stroke-width: 0.8; stroke-linejoin: miter; stroke-linecap: square"/>
   </g>
   <g id="patch_6">
    <path d="M 395.91945 319.248 
L 395.91945 60.912 
" style="fill: none; stroke: #1f1f1f; stroke-width: 0.8; stroke-linejoin: miter; stroke-linecap: square"/>
   </g>
   <g id="patch_7">
    <path d="M 54.030234 319.248 
L 395.91945 319.248 
" style="fill: none; stroke: #1f1f1f; stroke-width: 0.8; stroke-linejoin: miter; stroke-linecap: square"/>
   </g>
   <g id="patch_8">
    <path d="M 54.030234 60.912 
L 395.91945 60.912 
" style="fill: none; stroke: #1f1f1f; stroke-width: 0.8; stroke-linejoin: miter; stroke-linecap: square"/>
   </g>
   <g id="text_16">
    <text style="font-weight: 700; font-size: 10.5px; font-family: 'DejaVu Sans'; text-anchor: start; fill: #1f1f1f" x="54.030234" y="50.896217" transform="rotate(-0 54.030234 50.896217)">Frequency-resolved T2 signature</text>
   </g>
   <g id="patch_9">
    <path d="M 93.636863 123.485906 
Q 95.399413 140.464121 97.046518 156.330279 
" style="fill: none; stroke: #2c5d8a; stroke-linecap: round"/>
    <path d="M 98.307541 152.982172 
L 97.046518 156.330279 
L 95.124646 153.312596 
" style="fill: none; stroke: #2c5d8a; stroke-linecap: round"/>
   </g>
   <g id="text_17">
    <text style="font-size: 8px; font-family: 'DejaVu Sans'; fill: #2c5d8a" transform="translate(63.660917 108.875242)">Branch B</text>
    <text style="font-size: 8px; font-family: 'DejaVu Sans'; fill: #2c5d8a" transform="translate(63.660917 117.833492)">42 +/- 10 MHz</text>
   </g>
   <g id="patch_10">
    <path d="M 292.088359 87.236987 
Q 279.918899 92.299824 268.781703 96.933209 
" style="fill: none; stroke: #2c5d8a; stroke-linecap: round"/>
    <path d="M 272.3508 97.181306 
L 268.781703 96.933209 
L 271.121638 94.22679 
" style="fill: none; stroke: #2c5d8a; stroke-linecap: round"/>
   </g>
   <g id="text_18">
    <text style="font-size: 8px; font-family: 'DejaVu Sans'; fill: #2c5d8a" transform="translate(287.574276 73.846631)">Branch A</text>
    <text style="font-size: 8px; font-family: 'DejaVu Sans'; fill: #2c5d8a" transform="translate(287.574276 82.804881)">112 +/- 10 MHz</text>
   </g>
   <g id="patch_11">
    <path d="M 353.285449 288.257193 
Q 354.427692 287.743616 354.550232 287.68852 
" style="fill: none; stroke: #c0392b; stroke-linecap: round"/>
    <path d="M 350.975546 287.541486 
L 354.550232 287.68852 
L 352.287793 290.460049 
" style="fill: none; stroke: #c0392b; stroke-linecap: round"/>
   </g>
   <g id="text_19">
    <text style="font-size: 8px; font-family: 'DejaVu Sans'; fill: #c0392b" transform="translate(299.612629 297.154021)">150 MHz</text>
    <text style="font-size: 8px; font-family: 'DejaVu Sans'; fill: #c0392b" transform="translate(299.612629 306.112271)">anti-Zeno sign</text>
   </g>
   <g id="legend_1">
    <g id="patch_12">
     <path d="M 59.280234 99.937781 
L 177.047813 99.937781 
Q 178.547813 99.937781 178.547813 98.437781 
L 178.547813 66.162 
Q 178.547813 64.662 177.047813 64.662 
L 59.280234 64.662 
Q 57.780234 64.662 57.780234 66.162 
L 57.780234 98.437781 
Q 57.780234 99.937781 59.280234 99.937781 
z
" style="fill: #ffffff; opacity: 0.8; stroke: #cccccc; stroke-linejoin: miter"/>
    </g>
    <g id="line2d_31">
     <path d="M 60.780234 70.735828 
L 68.280234 70.735828 
L 75.780234 70.735828 
" style="fill: none; stroke: #2c5d8a; stroke-width: 1.8; stroke-linecap: square"/>
    </g>
    <g id="text_20">
     <text style="font-size: 7.5px; font-family: 'DejaVu Sans'; text-anchor: start" x="81.780234" y="73.360828" transform="rotate(-0 81.780234 73.360828)">chiral spin-active sample</text>
    </g>
    <g id="line2d_32">
     <path d="M 60.780234 81.744422 
L 68.280234 81.744422 
L 75.780234 81.744422 
" style="fill: none; stroke-dasharray: 4.44,1.92; stroke-dashoffset: 0; stroke: #666666; stroke-width: 1.2"/>
    </g>
    <g id="text_21">
     <text style="font-size: 7.5px; font-family: 'DejaVu Sans'; text-anchor: start" x="81.780234" y="84.369422" transform="rotate(-0 81.780234 84.369422)">achiral / null control</text>
    </g>
    <g id="patch_13">
     <path d="M 60.780234 95.378016 
L 75.780234 95.378016 
L 75.780234 90.128016 
L 60.780234 90.128016 
z
" style="fill: #f4f4f4; stroke: #f4f4f4; stroke-linejoin: miter"/>
    </g>
    <g id="text_22">
     <text style="font-size: 7.5px; font-family: 'DejaVu Sans'; text-anchor: start" x="81.780234" y="95.378016" transform="rotate(-0 81.780234 95.378016)">null band</text>
    </g>
   </g>
  </g>
  <g id="axes_2">
   <g id="patch_14">
    <path d="M 463.823908 135.312768 
L 539.565519 135.312768 
Q 542.973892 135.312768 542.973892 130.66272 
L 542.973892 86.7456 
Q 542.973892 82.095552 539.565519 82.095552 
L 463.823908 82.095552 
Q 460.415536 82.095552 460.415536 86.7456 
L 460.415536 130.66272 
Q 460.415536 135.312768 463.823908 135.312768 
z
" clip-path="url(#p44b172f6d5)" style="fill: #fae8e5; stroke: #c0392b; stroke-width: 1.05; stroke-linejoin: miter"/>
   </g>
   <g id="patch_15">
    <path d="M 558.500922 135.312768 
L 634.242533 135.312768 
Q 637.650906 135.312768 637.650906 130.66272 
L 637.650906 86.7456 
Q 637.650906 82.095552 634.242533 82.095552 
L 558.500922 82.095552 
Q 555.09255 82.095552 555.09255 86.7456 
L 555.09255 130.66272 
Q 555.09255 135.312768 558.500922 135.312768 
z
" clip-path="url(#p44b172f6d5)" style="fill: #fae8e5; stroke: #c0392b; stroke-width: 1.05; stroke-linejoin: miter"/>
   </g>
   <g id="patch_16">
    <path d="M 463.823908 205.063488 
L 539.565519 205.063488 
Q 542.973892 205.063488 542.973892 200.41344 
L 542.973892 156.49632 
Q 542.973892 151.846272 539.565519 151.846272 
L 463.823908 151.846272 
Q 460.415536 151.846272 460.415536 156.49632 
L 460.415536 200.41344 
Q 460.415536 205.063488 463.823908 205.063488 
z
" clip-path="url(#p44b172f6d5)" style="fill: #fae8e5; stroke: #c0392b; stroke-width: 1.05; stroke-linejoin: miter"/>
   </g>
   <g id="patch_17">
    <path d="M 558.500922 205.063488 
L 634.242533 205.063488 
Q 637.650906 205.063488 637.650906 200.41344 
L 637.650906 156.49632 
Q 637.650906 151.846272 634.242533 151.846272 
L 558.500922 151.846272 
Q 555.09255 151.846272 555.09255 156.49632 
L 555.09255 200.41344 
Q 555.09255 205.063488 558.500922 205.063488 
z
" clip-path="url(#p44b172f6d5)" style="fill: #fae8e5; stroke: #c0392b; stroke-width: 1.05; stroke-linejoin: miter"/>
   </g>
   <g id="patch_18">
    <path d="M 458.143288 210.74688 
L 639.923154 210.74688 
L 639.923154 78.99552 
L 458.143288 78.99552 
L 458.143288 210.74688 
z
" clip-path="url(#p44b172f6d5)" style="fill: none; stroke-dasharray: 4,2; stroke-dashoffset: 0; stroke: #c0392b; stroke-linejoin: miter"/>
   </g>
   <g id="patch_19">
    <path d="M 549.033221 212.748416 
Q 549.033221 224.954909 549.033221 236.043367 
" clip-path="url(#p44b172f6d5)" style="fill: none; stroke: #c0392b; stroke-linecap: round"/>
    <path d="M 551.033221 232.043367 
L 549.033221 236.043367 
L 547.033221 232.043367 
z
" clip-path="url(#p44b172f6d5)" style="fill: #c0392b; stroke: #c0392b; stroke-linecap: round"/>
   </g>
   <g id="patch_20">
    <path d="M 492.227013 285.147648 
L 605.839429 285.147648 
Q 609.247801 285.147648 609.247801 280.4976 
L 609.247801 241.7472 
Q 609.247801 237.097152 605.839429 237.097152 
L 492.227013 237.097152 
Q 488.81864 237.097152 488.81864 241.7472 
L 488.81864 280.4976 
Q 488.81864 285.147648 492.227013 285.147648 
z
" clip-path="url(#p44b172f6d5)" style="fill: #f4f4f4; stroke: #1f1f1f; stroke-width: 1.05; stroke-linejoin: miter"/>
   </g>
   <g id="text_23">
    <text style="font-weight: 700; font-size: 10.5px; font-family: 'DejaVu Sans'; text-anchor: start; fill: #1f1f1f" x="454.356207" y="50.896217" transform="rotate(-0 454.356207 50.896217)">Four-conjunct F1 null</text>
   </g>
   <g id="text_24">
    <text style="font-weight: 700; font-size: 8px; font-family: 'DejaVu Sans'; text-anchor: start; fill: #c0392b" x="470.451299" y="103.15779" transform="rotate(-0 470.451299 103.15779)">NAND 1</text>
   </g>
   <g id="text_25">
    <text style="font-size: 7.1px; font-family: 'DejaVu Sans'; fill: #1f1f1f" transform="translate(470.451299 116.682411)">no Branch A peak</text>
    <text style="font-size: 7.1px; font-family: 'DejaVu Sans'; fill: #1f1f1f" transform="translate(470.451299 124.363113)">102-122 MHz</text>
   </g>
   <g id="text_26">
    <text style="font-weight: 700; font-size: 8px; font-family: 'DejaVu Sans'; text-anchor: start; fill: #c0392b" x="565.128313" y="103.15779" transform="rotate(-0 565.128313 103.15779)">NAND 2</text>
   </g>
   <g id="text_27">
    <text style="font-size: 7.1px; font-family: 'DejaVu Sans'; fill: #1f1f1f" transform="translate(565.128313 116.682411)">no Branch B peak</text>
    <text style="font-size: 7.1px; font-family: 'DejaVu Sans'; fill: #1f1f1f" transform="translate(565.128313 124.363113)">32-52 MHz</text>
   </g>
   <g id="text_28">
    <text style="font-weight: 700; font-size: 8px; font-family: 'DejaVu Sans'; text-anchor: start; fill: #c0392b" x="470.451299" y="172.90851" transform="rotate(-0 470.451299 172.90851)">NAND 3</text>
   </g>
   <g id="text_29">
    <text style="font-size: 7.1px; font-family: 'DejaVu Sans'; fill: #1f1f1f" transform="translate(470.451299 186.433131)">no 150 MHz</text>
    <text style="font-size: 7.1px; font-family: 'DejaVu Sans'; fill: #1f1f1f" transform="translate(470.451299 194.113833)">anti-Zeno sign</text>
   </g>
   <g id="text_30">
    <text style="font-weight: 700; font-size: 8px; font-family: 'DejaVu Sans'; text-anchor: start; fill: #c0392b" x="565.128313" y="172.90851" transform="rotate(-0 565.128313 172.90851)">NAND 4</text>
   </g>
   <g id="text_31">
    <text style="font-size: 7.1px; font-family: 'DejaVu Sans'; fill: #1f1f1f" transform="translate(565.128313 186.433131)">no chirality</text>
    <text style="font-size: 7.1px; font-family: 'DejaVu Sans'; fill: #1f1f1f" transform="translate(565.128313 194.113833)">contrast</text>
   </g>
   <g id="text_32">
    <text style="font-weight: 700; font-size: 7.3px; font-family: 'DejaVu Sans'; text-anchor: middle; fill: #c0392b" x="549.033221" y="220.168779" transform="rotate(-0 549.033221 220.168779)">all four NAND outputs</text>
   </g>
   <g id="text_33">
    <text style="font-weight: 700; font-size: 8px; font-family: 'DejaVu Sans'; text-anchor: start; fill: #1f1f1f" x="498.854403" y="258.09689" transform="rotate(-0 498.854403 258.09689)">AND gate</text>
   </g>
   <g id="text_34">
    <text style="font-size: 7.1px; font-family: 'DejaVu Sans'; fill: #1f1f1f" transform="translate(498.854403 271.684011)">F1 framework null only if</text>
    <text style="font-size: 7.1px; font-family: 'DejaVu Sans'; fill: #1f1f1f" transform="translate(498.854403 279.364713)">all four nulls hold after S0-S7</text>
   </g>
   <g id="text_35">
    <text style="font-size: 7.4px; font-family: 'DejaVu Sans'; fill: #666666" transform="translate(463.823908 299.08921)">Single-branch nulls route to O.12/O.23 interpretation;</text>
    <text style="font-size: 7.4px; font-family: 'DejaVu Sans'; fill: #666666" transform="translate(463.823908 307.375591)">the hard surrogate-level null is joint.</text>
   </g>
  </g>
  <g id="text_36">
   <text style="font-weight: 700; font-size: 13px; font-family: 'DejaVu Sans'; text-anchor: start; fill: #1f1f1f" x="54.030234" y="31.477969" transform="rotate(-0 54.030234 31.477969)">Protocol A-Prime T2(nu_d): branch peaks, control sign, and F1 joint null</text>
  </g>
  <g id="text_37">
   <text style="font-size: 7.2px; font-family: 'DejaVu Sans'; text-anchor: start; fill: #666666" x="24.870234" y="369.417825" transform="rotate(-0 24.870234 369.417825)">Source: Ch13 Protocol A-Prime; synthetic design curve for registered Branch A/B windows, 150 MHz control, and chirality contrast.</text>
  </g>
 </g>
 <defs>
  <clipPath id="p092d186264">
   <rect x="54.030234" y="60.912" width="341.889216" height="258.336"/>
  </clipPath>
  <clipPath id="p44b172f6d5">
   <rect x="454.356207" y="60.912" width="189.354027" height="258.336"/>
  </clipPath>
 </defs>
</svg>
